<svg width="325.000000" height="12.000000" viewBox="0 0 325 12" fill="none" xmlns="http://www.w3.org/2000/svg" xmlns:xlink="http://www.w3.org/1999/xlink">
	<desc>
			Created with Pixso.
	</desc>
	<defs/>
	<path id="Сайт Концертно - экскурсионных программ" d="M18.9233 0.625648Q18.9233 0.469673 18.9836 0.342354Q19.0249 0.25518 19.0947 0.181442Q19.1829 0.0912933 19.2898 0.0459366L19.2898 0.045929Q19.3984 0 19.5264 0C19.6682 0 19.7864 0.0396271 19.8809 0.118874Q20.0227 0.237747 20.2534 0.681961C20.4622 1.08237 20.6929 1.28259 20.9451 1.28259C21.1973 1.28259 21.4258 1.08237 21.6309 0.681961Q21.8318 0.29406 21.9795 0.150154C22.082 0.0500488 22.2122 0 22.3699 0C22.5354 0 22.6733 0.0625687 22.7837 0.187698Q22.8525 0.263359 22.8928 0.352089Q22.9492 0.476112 22.9492 0.625648C22.9492 0.963501 22.7539 1.22211 22.3638 1.40146C21.9736 1.57664 21.5066 1.66423 20.9629 1.66423C20.3716 1.66423 19.8828 1.57455 19.4966 1.3952Q19.0969 1.20769 18.9758 0.907707Q18.9233 0.777306 18.9233 0.625648ZM26.709 1.85193L27.0754 1.85193C27.103 1.89781 27.1228 1.93118 27.1345 1.95203C27.2449 2.15224 27.3296 2.28363 27.3887 2.34619Q27.4656 2.37122 28.1987 2.37122Q28.6538 2.37122 29.0085 2.36496L29.1267 2.34619L29.842 2.33994L31.1782 2.35245L33.0049 2.35245L33.3538 2.29614Q33.4304 2.23983 33.5193 1.99583C33.5349 1.95829 33.5566 1.90615 33.5842 1.83942L33.8442 1.83316C33.8838 1.83316 33.9429 1.83524 34.0217 1.83942C34.0256 2.12721 34.0276 2.561 34.0276 3.14077L34.0334 3.6976L34.0276 4.01669C34.0276 4.12513 34.0198 4.21898 34.0039 4.29823C33.8423 4.35245 33.7004 4.38582 33.5784 4.39833C33.4758 4.23566 33.3635 4 33.2412 3.69135C33.123 3.38269 33.0481 3.21168 33.0166 3.17831C32.9695 3.12408 32.9143 3.08863 32.8511 3.07195Q32.7092 3.04066 31.5979 3.04066C31.4875 3.04066 31.3496 3.04901 31.1841 3.0657C31.1604 3.22836 31.1487 3.36183 31.1487 3.46611L31.1545 4.30448L31.1545 6.1439L31.1782 8.12721L31.1721 8.94057C31.1721 9.22836 31.1958 9.44525 31.2432 9.59124C31.3062 9.62044 31.4226 9.64755 31.592 9.67258C31.6235 9.67674 31.7693 9.71011 32.0295 9.77268C32.1477 9.80188 32.2522 9.83524 32.3428 9.87279C32.3625 10.0229 32.3723 10.1147 32.3723 10.1481C32.3723 10.1856 32.3665 10.2398 32.3545 10.3107C32.2678 10.3149 32.197 10.317 32.1418 10.317C31.7358 10.317 31.3909 10.3024 31.1072 10.2732Q30.6816 10.2231 29.5642 10.2231C29.446 10.2231 29.0991 10.2482 28.5239 10.2982Q28.1868 10.3232 28.0864 10.3233C28.0825 10.2607 28.0784 10.2127 28.0745 10.1794L28.0686 10.0355L28.0686 9.9854C28.1553 9.86444 28.3188 9.77477 28.5593 9.71637C28.9692 9.6121 29.2529 9.51825 29.4106 9.43483C29.45 9.35558 29.4736 9.2513 29.4814 9.122Q29.5229 8.37122 29.5229 6.73201L29.4934 4.36705C29.4934 3.71637 29.4814 3.32221 29.4578 3.18457C29.45 3.14703 29.4363 3.11992 29.4165 3.10323C29.3967 3.08237 29.3691 3.06986 29.3337 3.0657C29.2114 3.04901 28.8135 3.04066 28.1396 3.04066C27.769 3.04066 27.5208 3.07821 27.3948 3.15328C27.2251 3.25756 26.9709 3.54119 26.6321 4.00417C26.5334 4.13764 26.4607 4.20438 26.4133 4.20438C26.2319 4.10428 26.1157 4.02294 26.0645 3.96037C26.1868 3.68926 26.3562 3.14703 26.573 2.33368C26.636 2.09593 26.6814 1.93535 26.709 1.85193ZM93.1917 1.85193L93.5581 1.85193C93.5857 1.89781 93.6055 1.93118 93.6172 1.95203C93.7275 2.15224 93.8123 2.28363 93.8713 2.34619C93.9226 2.36288 94.1926 2.37122 94.6814 2.37122C94.9849 2.37122 95.2546 2.36913 95.4912 2.36496L95.6094 2.34619L96.3247 2.33994L97.6609 2.35245L99.4875 2.35245L99.8362 2.29614C99.8875 2.25861 99.9426 2.1585 100.002 1.99583C100.018 1.95829 100.039 1.90615 100.067 1.83942L100.327 1.83316C100.366 1.83316 100.426 1.83524 100.504 1.83942C100.508 2.12721 100.51 2.561 100.51 3.14077L100.516 3.6976L100.51 4.01669C100.51 4.12513 100.502 4.21898 100.487 4.29823C100.325 4.35245 100.183 4.38582 100.061 4.39833C99.9585 4.23566 99.8462 4 99.7239 3.69135C99.6057 3.38269 99.5308 3.21168 99.4993 3.17831C99.4521 3.12408 99.397 3.08863 99.3337 3.07195C99.2393 3.05109 98.8215 3.04066 98.0806 3.04066C97.9702 3.04066 97.8323 3.04901 97.6667 3.0657C97.6431 3.22836 97.6313 3.36183 97.6313 3.46611L97.6372 4.30448L97.6372 6.1439L97.6609 8.12721L97.6548 8.94057C97.6548 9.22836 97.6785 9.44525 97.7258 9.59124C97.7888 9.62044 97.905 9.64755 98.0747 9.67258C98.1062 9.67674 98.252 9.71011 98.512 9.77268C98.6304 9.80188 98.7349 9.83524 98.8254 9.87279C98.8452 10.0229 98.855 10.1147 98.855 10.1481C98.855 10.1856 98.8491 10.2398 98.8372 10.3107Q98.7073 10.317 98.6245 10.317C98.2185 10.317 97.8735 10.3024 97.5898 10.2732C97.3062 10.2398 96.7917 10.2231 96.0469 10.2231Q95.8696 10.2231 95.0063 10.2982C94.7817 10.3149 94.636 10.3233 94.5691 10.3233C94.5649 10.2607 94.561 10.2127 94.5571 10.1794L94.5513 10.0355L94.5513 9.9854C94.6379 9.86444 94.8015 9.77477 95.042 9.71637C95.4519 9.6121 95.7356 9.51825 95.8933 9.43483C95.9326 9.35558 95.9563 9.2513 95.9641 9.122C95.9917 8.62148 96.0056 7.82481 96.0056 6.73201L95.9761 4.36705C95.9761 3.71637 95.9641 3.32221 95.9404 3.18457C95.9326 3.14703 95.9187 3.11992 95.8992 3.10323C95.8794 3.08237 95.8518 3.06986 95.8164 3.0657C95.6941 3.04901 95.2961 3.04066 94.6223 3.04066C94.2517 3.04066 94.0034 3.07821 93.8774 3.15328C93.7078 3.25756 93.4536 3.54119 93.1147 4.00417C93.0161 4.13764 92.9434 4.20438 92.896 4.20438C92.7146 4.10428 92.5984 4.02294 92.5471 3.96037C92.6694 3.68926 92.8389 3.14703 93.0557 2.33368C93.1187 2.09593 93.1641 1.93535 93.1917 1.85193ZM6.71558 2.33368C6.76685 2.45881 6.87134 2.81543 7.02905 3.40355C7.09985 3.67049 7.13745 3.95412 7.14136 4.25443L6.60327 4.25443C6.2251 3.68717 5.83472 3.2805 5.43286 3.03441Q5.22559 2.90536 5.00146 2.82067Q4.57373 2.65902 4.08496 2.65902Q3.65894 2.65902 3.30957 2.82273Q2.90747 3.01106 2.60693 3.41606Q1.84448 4.44212 1.84448 6.27528C1.84448 6.98436 1.8877 7.48905 1.97461 7.78937Q2.18726 8.52138 2.51245 8.98436C2.67798 9.21793 2.89478 9.40355 3.16284 9.54119Q3.42407 9.68266 3.70361 9.75305Q3.97998 9.82273 4.27417 9.82273Q4.3833 9.82273 4.49097 9.81075Q5.02563 9.75133 5.52734 9.39729C5.93335 9.10949 6.32153 8.68196 6.69189 8.1147C6.83789 8.0855 7.02905 8.06882 7.26538 8.06465C7.24976 8.22315 7.22412 8.3879 7.18848 8.55891Q7.1709 8.65902 7.05273 9.35349L6.99951 9.54119L6.91675 9.83524C6.67627 10.0313 6.3374 10.1794 5.8999 10.2795Q5.24951 10.4234 4.29785 10.4234C3.81299 10.4234 3.354 10.3754 2.92041 10.2795C2.49072 10.1835 2.12231 10.0313 1.81494 9.82273C1.36548 9.52242 1.01294 9.19708 0.756592 8.84672Q0.546387 8.55917 0.394531 8.24354L0.394531 8.2435Q0.269043 7.98225 0.18335 7.70177Q0 7.08237 0 6.31283Q0 5.03201 0.546875 4.05826Q0.795898 3.61456 1.15869 3.23462Q1.6106 2.76374 2.15845 2.47554Q3.02271 2.02086 4.12646 2.02086Q4.85938 2.02086 5.50366 2.10219Q6.15405 2.17727 6.71558 2.33368ZM136.855 5.88738C136.812 4.78207 136.603 3.96872 136.229 3.44734C135.854 2.92179 135.294 2.65902 134.55 2.65902C134.1 2.65902 133.683 2.76746 133.296 2.98436Q132.723 3.30344 132.09 4.25443L131.552 4.25443C131.56 3.76225 131.702 3.14703 131.978 2.40876C132.739 2.15015 133.631 2.02086 134.656 2.02086Q136.213 2.02086 137.19 2.77391L137.191 2.77434Q137.441 2.96726 137.653 3.20959C138.347 3.99792 138.694 4.99895 138.694 6.21272C138.694 7.5683 138.302 8.60897 137.517 9.33472C136.737 10.0605 135.697 10.4234 134.396 10.4234Q132.699 10.4234 131.777 9.83524C131.604 9.16371 131.487 8.57352 131.428 8.06465C131.665 8.06465 131.856 8.08134 132.002 8.1147C132.573 9.25339 133.365 9.82273 134.378 9.82273Q134.933 9.82273 135.388 9.60948Q135.825 9.40466 136.169 9.00313C136.642 8.45255 136.879 7.5975 136.879 6.43796L136.583 6.44421Q136.5 6.44421 136.293 6.4317L135.371 6.41293Q134.473 6.41293 134.331 6.53181C134.24 6.61105 134.148 6.88425 134.053 7.35141L133.964 7.76434L133.545 7.76434L133.551 7.30135L133.58 6.55058L133.574 6.3316L133.562 5.44317C133.562 5.18874 133.57 4.89051 133.586 4.54848L133.917 4.54223C133.933 4.54223 133.962 4.54432 134.006 4.54848C134.112 5.21168 134.232 5.60375 134.366 5.72472C134.504 5.84567 135.19 5.90615 136.424 5.90615L136.855 5.88738ZM155.075 2.33368C155.126 2.45881 155.231 2.81543 155.388 3.40355C155.459 3.67049 155.497 3.95412 155.5 4.25443L154.963 4.25443Q154.395 3.40355 153.792 3.03441C153.39 2.78415 152.941 2.65902 152.444 2.65902C151.833 2.65902 151.341 2.91137 150.966 3.41606C150.458 4.10011 150.204 5.05318 150.204 6.27528C150.204 6.98436 150.247 7.48905 150.334 7.78937Q150.547 8.52138 150.872 8.98436C151.037 9.21793 151.254 9.40355 151.522 9.54119C151.869 9.72888 152.239 9.82273 152.634 9.82273C153.067 9.82273 153.485 9.68092 153.887 9.39729C154.293 9.10949 154.681 8.68196 155.051 8.1147C155.197 8.0855 155.388 8.06882 155.625 8.06465C155.609 8.22315 155.583 8.3879 155.548 8.55891C155.536 8.62565 155.491 8.89051 155.412 9.35349L155.359 9.54119L155.276 9.83524C155.035 10.0313 154.697 10.1794 154.259 10.2795C153.826 10.3754 153.292 10.4234 152.657 10.4234C152.172 10.4234 151.713 10.3754 151.28 10.2795C150.85 10.1835 150.482 10.0313 150.174 9.82273C149.725 9.52242 149.372 9.19708 149.116 8.84672C148.86 8.49635 148.669 8.1147 148.542 7.70177C148.42 7.28884 148.359 6.82586 148.359 6.31283Q148.359 5.03201 148.906 4.05827Q149.155 3.61452 149.518 3.23462C150.294 2.42545 151.284 2.02086 152.486 2.02086C152.974 2.02086 153.433 2.04797 153.863 2.10219Q154.513 2.17727 155.075 2.33368ZM187.234 2.33368C187.286 2.45881 187.39 2.81543 187.548 3.40355C187.619 3.67049 187.656 3.95412 187.66 4.25443L187.122 4.25443Q186.555 3.40355 185.952 3.03441C185.55 2.78415 185.1 2.65902 184.604 2.65902C183.993 2.65902 183.5 2.91137 183.126 3.41606Q182.363 4.44212 182.363 6.27528C182.363 6.98436 182.406 7.48905 182.493 7.78937C182.635 8.27737 182.814 8.6757 183.031 8.98436C183.197 9.21793 183.414 9.40355 183.681 9.54119C184.028 9.72888 184.399 9.82273 184.793 9.82273C185.226 9.82273 185.644 9.68092 186.046 9.39729C186.452 9.10949 186.84 8.68196 187.211 8.1147C187.357 8.0855 187.548 8.06882 187.784 8.06465C187.769 8.22315 187.743 8.3879 187.707 8.55891C187.696 8.62565 187.65 8.89051 187.571 9.35349L187.518 9.54119L187.436 9.83524C187.195 10.0313 186.856 10.1794 186.419 10.2795C185.985 10.3754 185.451 10.4234 184.817 10.4234C184.332 10.4234 183.873 10.3754 183.439 10.2795C183.01 10.1835 182.641 10.0313 182.334 9.82273C181.884 9.52242 181.532 9.19708 181.275 8.84672C181.019 8.49635 180.828 8.1147 180.702 7.70177C180.58 7.28884 180.519 6.82586 180.519 6.31283C180.519 5.06986 180.905 4.04379 181.677 3.23462C182.454 2.42545 183.443 2.02086 184.645 2.02086C185.134 2.02086 185.593 2.04797 186.022 2.10219C186.456 2.15224 186.86 2.22941 187.234 2.33368ZM41.8901 5.53702C42.241 5.65381 42.5503 5.85818 42.8181 6.15015Q43.2202 6.58811 43.7937 7.65797C44.2429 8.49635 44.5818 9.03441 44.8105 9.27216C45.043 9.50574 45.3523 9.68092 45.7385 9.79771C45.8804 9.83942 45.9712 9.87279 46.0105 9.89781C46.0183 9.97289 46.0225 10.0313 46.0225 10.073Q46.0225 10.1481 45.9988 10.3045L45.3484 10.292L44.4558 10.2669C44.2312 10.2669 43.9355 10.2815 43.5691 10.3107C43.3208 9.74348 42.9443 9.01564 42.4399 8.12721C41.9353 7.23462 41.5649 6.7049 41.3284 6.53806C41.092 6.36705 40.8496 6.28154 40.6013 6.28154C40.5857 6.43587 40.5776 6.5756 40.5776 6.70073L40.6072 7.56413C40.6152 7.73931 40.6191 7.90615 40.6191 8.06465L40.6072 8.81543L40.6191 9.03441L40.6309 9.46611C40.7097 9.56204 40.9067 9.65381 41.2222 9.74139C41.3994 9.79145 41.5491 9.85818 41.6714 9.9416C41.6831 10.025 41.6892 10.0876 41.6892 10.1293C41.6892 10.1627 41.6851 10.2148 41.6772 10.2857C41.5 10.2941 41.356 10.2982 41.2458 10.2982C40.9541 10.2982 40.6348 10.2857 40.2881 10.2607L39.8918 10.2357L39.3599 10.2544L38.3135 10.2482L37.752 10.2669L37.7461 9.91658C37.7815 9.88738 37.9668 9.80605 38.3018 9.67258L38.4553 9.60375C38.6289 9.52033 38.7451 9.47028 38.8042 9.4536C38.8831 9.40355 38.9343 9.33472 38.958 9.24713C38.9814 9.15537 38.9934 8.83003 38.9934 8.27112L38.9756 7.67049L38.9814 6.34411L38.9756 5.40563L38.9875 5.13034L38.9756 4.32326L38.9934 4.00417C38.9934 3.52033 38.9639 3.19291 38.9048 3.0219C38.7825 2.91345 38.5461 2.81335 38.1953 2.72159C37.9863 2.66736 37.8445 2.61105 37.7698 2.55266L37.811 2.16476Q37.9233 2.14599 38.0476 2.14599C38.3352 2.14599 38.6208 2.16684 38.9048 2.20855C39.1924 2.24609 39.5608 2.26486 40.0103 2.26486L40.2644 2.25235L40.9739 2.22732C41.0801 2.22315 41.2261 2.21272 41.4111 2.19604L41.6182 2.17727L41.7659 2.18353C41.7778 2.2169 41.7837 2.26277 41.7837 2.32117C41.7837 2.46298 41.7778 2.55474 41.7659 2.59645C41.5256 2.69239 41.2773 2.7633 41.021 2.80917C40.824 2.84672 40.7019 2.88217 40.6545 2.91553C40.6072 2.94891 40.5837 3.02399 40.5837 3.14077Q40.5837 3.76643 40.5955 3.96663L40.6072 4.49844L40.5955 4.89885L40.5955 5.37435L40.5896 5.91241C40.822 5.83316 41.0486 5.71011 41.2693 5.54327C41.49 5.37643 41.7678 4.99687 42.103 4.40459C42.6782 3.38269 43.1611 2.7341 43.5513 2.45881Q44.1423 2.03963 44.7336 2.03963C45.1277 2.03963 45.4272 2.14599 45.6321 2.3587Q45.7947 2.52092 45.8728 2.71678Q45.9456 2.89864 45.9456 3.10949C45.9456 3.32639 45.8804 3.51825 45.7505 3.68509C45.6243 3.85193 45.449 3.93535 45.2244 3.93535C45.0508 3.93535 44.9128 3.89781 44.8105 3.82273C44.7119 3.74348 44.5898 3.59332 44.4438 3.37226C44.302 3.14703 44.1602 3.03441 44.0183 3.03441C43.6873 3.03441 43.2595 3.5099 42.7354 4.4609C42.428 5.01147 42.1462 5.37018 41.8901 5.53702ZM46.519 6.15015C46.519 5.63295 46.6135 5.11366 46.8027 4.59229C46.9407 4.21689 47.1338 3.87279 47.3821 3.55996C47.6304 3.24713 47.9417 2.96976 48.3162 2.72784C48.6904 2.48175 49.0728 2.30657 49.4629 2.20229Q50.0481 2.03963 50.7695 2.03963C51.5891 2.03963 52.3005 2.20229 52.9036 2.52763C53.5066 2.85297 53.9814 3.29301 54.3284 3.84776Q54.8191 4.63615 54.9524 5.48096Q55.0022 5.796 55.0022 6.11887Q55.0022 7.13821 54.624 7.98959Q54.3452 8.61706 53.8613 9.15328Q53.5842 9.46158 53.2544 9.69467Q52.2314 10.4171 50.6985 10.4171C50.3635 10.4171 50.0503 10.3942 49.7585 10.3483C49.5378 10.3149 49.3447 10.269 49.1792 10.2106C48.8796 10.1064 48.7122 10.0459 48.6768 10.0292C48.2471 9.77059 47.9023 9.50574 47.6421 9.23462Q47.5979 9.18858 47.5554 9.14117L47.5547 9.14059Q47.2209 8.7695 46.98 8.31491C46.8816 8.12305 46.7693 7.77685 46.6431 7.27633C46.5603 6.95516 46.519 6.57977 46.519 6.15015ZM111.89 6.15015C111.89 5.63295 111.985 5.11366 112.174 4.59229C112.312 4.21689 112.505 3.87279 112.753 3.55996Q113.126 3.09072 113.687 2.72784C114.062 2.48175 114.444 2.30657 114.834 2.20229C115.224 2.09385 115.66 2.03963 116.141 2.03963Q117.37 2.03963 118.275 2.52763C118.878 2.85297 119.353 3.29301 119.699 3.84776C120.149 4.56934 120.374 5.32639 120.374 6.11887Q120.374 7.1382 119.995 7.98959Q119.717 8.61706 119.232 9.15328C118.476 9.99583 117.422 10.4171 116.07 10.4171C115.735 10.4171 115.421 10.3942 115.13 10.3483C114.909 10.3149 114.716 10.269 114.551 10.2106C114.251 10.1064 114.083 10.0459 114.048 10.0292C113.618 9.77059 113.273 9.50574 113.013 9.23462C112.753 8.9635 112.532 8.65694 112.351 8.31491C112.253 8.12305 112.14 7.77685 112.014 7.27633C111.932 6.95516 111.89 6.57977 111.89 6.15015ZM143.713 5.53702C144.063 5.65381 144.373 5.85818 144.641 6.15015C144.909 6.44212 145.234 6.94473 145.616 7.65797C146.066 8.49635 146.405 9.03441 146.633 9.27216C146.865 9.50574 147.175 9.68092 147.561 9.79771C147.703 9.83942 147.794 9.87279 147.833 9.89781C147.841 9.97289 147.845 10.0313 147.845 10.073C147.845 10.123 147.837 10.2002 147.821 10.3045L147.171 10.292L146.278 10.2669C146.054 10.2669 145.758 10.2815 145.392 10.3107C145.143 9.74348 144.767 9.01564 144.262 8.12721C143.758 7.23462 143.387 6.7049 143.151 6.53806C142.915 6.36705 142.672 6.28154 142.424 6.28154C142.408 6.43587 142.4 6.5756 142.4 6.70073L142.43 7.56413C142.438 7.73931 142.442 7.90615 142.442 8.06465L142.43 8.81543L142.442 9.03441L142.454 9.46611C142.532 9.56204 142.729 9.65381 143.045 9.74139C143.222 9.79145 143.372 9.85818 143.494 9.9416C143.506 10.025 143.512 10.0876 143.512 10.1293C143.512 10.1627 143.508 10.2148 143.5 10.2857C143.323 10.2941 143.179 10.2982 143.068 10.2982C142.777 10.2982 142.458 10.2857 142.111 10.2607L141.715 10.2357L141.183 10.2544L140.136 10.2482L139.574 10.2669L139.569 9.91658C139.604 9.88738 139.789 9.80605 140.124 9.67258L140.278 9.60375C140.451 9.52033 140.568 9.47028 140.627 9.4536C140.706 9.40355 140.757 9.33472 140.781 9.24713Q140.816 9.10949 140.816 8.27112L140.798 7.67049L140.804 6.34411L140.798 5.40563L140.81 5.13034L140.798 4.32326L140.816 4.00417C140.816 3.52033 140.786 3.19291 140.727 3.0219C140.605 2.91345 140.369 2.81335 140.018 2.72159C139.809 2.66736 139.667 2.61105 139.592 2.55266L139.634 2.16476C139.708 2.15224 139.787 2.14599 139.87 2.14599C140.158 2.14599 140.444 2.16684 140.727 2.20855C141.015 2.24609 141.384 2.26486 141.833 2.26486L142.087 2.25235L142.796 2.22732C142.903 2.22315 143.049 2.21272 143.234 2.19604L143.441 2.17727L143.589 2.18353C143.6 2.2169 143.606 2.26277 143.606 2.32117C143.606 2.46298 143.6 2.55474 143.589 2.59645C143.348 2.69239 143.1 2.7633 142.844 2.80917C142.647 2.84672 142.524 2.88217 142.477 2.91553C142.43 2.94891 142.406 3.02399 142.406 3.14077C142.406 3.55788 142.41 3.83316 142.418 3.96663L142.43 4.49844L142.418 4.89885L142.418 5.37435L142.412 5.91241C142.645 5.83316 142.871 5.71011 143.092 5.54327C143.313 5.37643 143.591 4.99687 143.926 4.40459C144.501 3.38269 144.984 2.7341 145.374 2.45881C145.768 2.17935 146.162 2.03963 146.556 2.03963Q147.1 2.03963 147.404 2.30973Q147.43 2.3332 147.455 2.3587C147.664 2.56726 147.768 2.81752 147.768 3.10949C147.768 3.32639 147.703 3.51825 147.573 3.68509C147.447 3.85193 147.271 3.93535 147.047 3.93535C146.874 3.93535 146.736 3.89781 146.633 3.82273C146.534 3.74348 146.412 3.59332 146.267 3.37226C146.125 3.14703 145.983 3.03441 145.841 3.03441Q145.344 3.03441 144.558 4.4609Q144.097 5.28676 143.713 5.53702ZM160.478 5.53702C160.829 5.65381 161.138 5.85818 161.406 6.15015C161.674 6.44212 162 6.94473 162.382 7.65797C162.831 8.49635 163.17 9.03441 163.399 9.27216C163.631 9.50574 163.94 9.68092 164.327 9.79771C164.469 9.83942 164.559 9.87279 164.599 9.89781C164.606 9.97289 164.611 10.0313 164.611 10.073C164.611 10.123 164.603 10.2002 164.587 10.3045L163.937 10.292L163.044 10.2669C162.819 10.2669 162.524 10.2815 162.157 10.3107Q161.785 9.45985 161.028 8.12721Q160.271 6.78832 159.917 6.53806C159.68 6.36705 159.438 6.28154 159.189 6.28154C159.174 6.43587 159.166 6.5756 159.166 6.70073L159.195 7.56413C159.203 7.73931 159.207 7.90615 159.207 8.06465L159.195 8.81543L159.207 9.03441L159.219 9.46611C159.298 9.56204 159.495 9.65381 159.81 9.74139C159.988 9.79145 160.137 9.85818 160.26 9.9416C160.271 10.025 160.277 10.0876 160.277 10.1293C160.277 10.1627 160.273 10.2148 160.265 10.2857C160.088 10.2941 159.944 10.2982 159.834 10.2982C159.542 10.2982 159.223 10.2857 158.876 10.2607L158.48 10.2357L157.948 10.2544L156.902 10.2482L156.34 10.2669L156.334 9.91658C156.37 9.88738 156.555 9.80605 156.89 9.67258L157.043 9.60375C157.217 9.52033 157.333 9.47028 157.392 9.4536C157.471 9.40355 157.522 9.33472 157.546 9.24713C157.57 9.15537 157.582 8.83003 157.582 8.27112L157.564 7.67049L157.57 6.34411L157.564 5.40563L157.576 5.13034L157.564 4.32326L157.582 4.00417C157.582 3.52033 157.552 3.19291 157.493 3.0219Q157.31 2.85923 156.783 2.72159C156.574 2.66736 156.433 2.61105 156.358 2.55266L156.399 2.16476C156.474 2.15224 156.553 2.14599 156.635 2.14599C156.923 2.14599 157.209 2.16684 157.493 2.20855C157.781 2.24609 158.149 2.26486 158.598 2.26486L158.853 2.25235L159.562 2.22732C159.668 2.22315 159.814 2.21272 159.999 2.19604L160.206 2.17727L160.354 2.18353C160.366 2.2169 160.372 2.26277 160.372 2.32117C160.372 2.46298 160.366 2.55474 160.354 2.59645C160.114 2.69239 159.865 2.7633 159.609 2.80917C159.412 2.84672 159.29 2.88217 159.243 2.91553C159.195 2.94891 159.172 3.02399 159.172 3.14077Q159.172 3.76643 159.184 3.96663L159.195 4.49844L159.184 4.89885L159.184 5.37435L159.178 5.91241C159.41 5.83316 159.637 5.71011 159.857 5.54327Q160.188 5.29301 160.691 4.40459Q161.554 2.87174 162.139 2.45881C162.533 2.17935 162.927 2.03963 163.322 2.03963C163.716 2.03963 164.015 2.14599 164.22 2.3587C164.27 2.40779 164.313 2.45918 164.35 2.51289C164.351 2.48939 164.353 2.46094 164.356 2.42753C164.36 2.38582 164.364 2.32534 164.368 2.24609C164.427 2.22106 164.543 2.20855 164.717 2.20855L165.107 2.19604C165.123 2.20021 165.143 2.20438 165.166 2.20855C165.265 2.22523 165.334 2.23357 165.373 2.23357C165.381 2.23357 165.401 2.23149 165.432 2.22732C165.842 2.29406 166.392 2.32742 167.082 2.32742C167.397 2.32742 167.706 2.30448 168.01 2.25861C168.053 2.25026 168.086 2.24609 168.11 2.24609C168.114 2.24609 168.128 2.24818 168.152 2.25235C168.171 2.30657 168.181 2.34828 168.181 2.37748C168.181 2.38582 168.179 2.41084 168.175 2.45255C168.171 2.48175 168.169 2.50469 168.169 2.52138L168.175 2.70281C168.096 2.73618 167.988 2.76538 167.85 2.79041L167.584 2.84046C167.458 2.86549 167.326 2.88843 167.188 2.90928C167.156 2.91345 167.141 2.94891 167.141 3.01564Q167.223 3.22211 167.495 3.65381L167.655 3.92909L167.968 4.39833L168.796 5.74974L169.405 6.91345L170.966 3.40981C171.084 3.14286 171.143 2.98853 171.143 2.94682C171.143 2.83003 171.015 2.77164 170.759 2.77164L170.54 2.72784C170.445 2.71116 170.382 2.69865 170.351 2.6903C170.343 2.6611 170.331 2.50677 170.315 2.22732C170.382 2.22732 170.552 2.23983 170.824 2.26486L171.527 2.29614L171.675 2.32117L171.959 2.32117L172.059 2.31491C172.142 2.3024 172.223 2.29406 172.302 2.28989L172.497 2.27112L172.55 2.26486C172.609 2.26069 172.666 2.25443 172.721 2.24609L172.715 2.71533L172.638 2.74036C172.311 2.78623 172.077 2.85714 171.935 2.95308C171.797 3.04901 171.637 3.30344 171.456 3.71637L169.369 8.44004C168.77 9.79979 167.964 10.4797 166.951 10.4797C166.55 10.4797 166.228 10.3754 165.988 10.1668C165.748 9.95829 165.627 9.70803 165.627 9.41606C165.627 9.19083 165.698 8.99687 165.84 8.8342C165.982 8.66736 166.171 8.58394 166.408 8.58394C166.53 8.58394 166.648 8.61105 166.762 8.66528C166.881 8.71533 167.024 8.87592 167.194 9.14703Q167.404 9.47473 167.62 9.47858L167.625 9.47862C168 9.47862 168.337 9.17414 168.636 8.56517C168.601 8.3316 168.23 7.69552 167.525 6.65694C167.3 6.32742 167.091 6.00208 166.898 5.68092Q166.378 4.81126 165.864 4.04171L165.71 3.77894C165.537 3.47862 165.342 3.18248 165.125 2.89051C165.042 2.80292 164.89 2.73827 164.67 2.69656L164.581 2.67153C164.515 2.65346 164.462 2.63974 164.422 2.63036C164.496 2.77515 164.534 2.93486 164.534 3.10949C164.534 3.32639 164.469 3.51825 164.339 3.68509C164.212 3.85193 164.037 3.93535 163.812 3.93535C163.639 3.93535 163.501 3.89781 163.399 3.82273C163.3 3.74348 163.178 3.59332 163.032 3.37226C162.89 3.14703 162.748 3.03441 162.606 3.03441Q162.11 3.03441 161.323 4.4609C161.016 5.01147 160.734 5.37018 160.478 5.53702ZM199.182 6.15015Q199.182 5.37435 199.466 4.59229C199.604 4.21689 199.797 3.87279 200.045 3.55996C200.293 3.24713 200.605 2.96976 200.979 2.72784C201.354 2.48175 201.736 2.30657 202.126 2.20229C202.516 2.09385 202.952 2.03963 203.432 2.03963C204.252 2.03963 204.964 2.20229 205.567 2.52763Q206.177 2.8571 206.613 3.34341L206.613 3.3435Q206.822 3.57748 206.991 3.84776C207.44 4.56934 207.665 5.32639 207.665 6.11887C207.665 7.29927 207.285 8.31074 206.524 9.15328C205.768 9.99583 204.713 10.4171 203.362 10.4171C203.026 10.4171 202.713 10.3942 202.422 10.3483C202.201 10.3149 202.008 10.269 201.842 10.2106C201.543 10.1064 201.375 10.0459 201.34 10.0292C200.91 9.77059 200.565 9.50574 200.305 9.23462C200.045 8.9635 199.824 8.65694 199.643 8.31491C199.544 8.12305 199.432 7.77685 199.306 7.27633C199.223 6.95516 199.182 6.57977 199.182 6.15015ZM271.304 6.15015C271.304 5.63295 271.399 5.11366 271.588 4.59229C271.726 4.21689 271.919 3.87279 272.167 3.55996C272.416 3.24713 272.727 2.96976 273.101 2.72784C273.476 2.48175 273.858 2.30657 274.248 2.20229C274.638 2.09385 275.074 2.03963 275.555 2.03963C276.375 2.03963 277.086 2.20229 277.689 2.52763C278.292 2.85297 278.767 3.29301 279.114 3.84776Q279.604 4.63614 279.738 5.48095Q279.788 5.79599 279.788 6.11887Q279.788 7.13824 279.409 7.98965Q279.131 8.61708 278.647 9.15328C277.89 9.99583 276.836 10.4171 275.484 10.4171C275.149 10.4171 274.835 10.3942 274.544 10.3483C274.323 10.3149 274.13 10.269 273.965 10.2106C273.665 10.1064 273.498 10.0459 273.462 10.0292C273.032 9.77059 272.688 9.50574 272.427 9.23462C272.167 8.9635 271.947 8.65694 271.765 8.31491C271.667 8.12305 271.554 7.77685 271.428 7.27633Q271.304 6.79458 271.304 6.15015ZM7.50195 10.3045L7.51367 9.87904C7.58862 9.85401 7.7207 9.82273 7.90991 9.78519C8.21338 9.72263 8.39648 9.66632 8.45972 9.61626C8.52661 9.56622 8.60742 9.44525 8.7019 9.25339L9.89624 5.9437L11.2971 2.05214Q11.4922 2.0584 11.6697 2.0584L11.9355 2.0584L11.9888 2.17101L13.0176 4.7487C13.25 5.2951 13.459 5.8269 13.644 6.34411C13.8293 6.85715 13.989 7.27633 14.123 7.60167C14.2019 7.79771 14.3103 8.09177 14.4482 8.48384C14.519 8.69656 14.6274 8.9635 14.7732 9.28467C14.8521 9.45985 14.9111 9.56204 14.9507 9.59124C15.0215 9.65381 15.1357 9.69552 15.2935 9.71637C15.4551 9.73723 15.6284 9.78519 15.8137 9.86028C15.8335 9.99792 15.8433 10.1001 15.8433 10.1668C15.8433 10.196 15.8413 10.2419 15.8374 10.3045C15.5457 10.3045 15.2246 10.2899 14.8738 10.2607C14.5229 10.2315 14.2078 10.2169 13.928 10.2169C13.6165 10.2169 13.3918 10.2211 13.2539 10.2294L12.249 10.2857L11.9592 10.2982C11.9592 10.1522 11.9653 10.0125 11.9771 9.87904L12.6333 9.72888C12.8303 9.67466 12.9446 9.63295 12.9761 9.60375C13.0156 9.56204 13.0352 9.51408 13.0352 9.45985C13.0352 9.40563 13.0254 9.34932 13.0056 9.29092L12.7693 8.67779L12.3022 7.45152L10.0439 7.44526C9.96118 7.64546 9.78979 8.13556 9.52954 8.91553C9.45483 9.1366 9.41724 9.28676 9.41724 9.366C9.41724 9.47446 9.44482 9.55161 9.5 9.5975C9.59082 9.67674 9.76416 9.73306 10.0203 9.76643C10.0557 9.77477 10.1956 9.79771 10.4399 9.83524C10.4438 9.9854 10.4458 10.0897 10.4458 10.1481C10.4458 10.194 10.4419 10.2419 10.4341 10.292Q10.0676 10.292 8.68433 10.1856L8.44189 10.2294Q8.00439 10.3045 7.6084 10.3045L7.50195 10.3045ZM294.975 10.3045L294.987 9.87904C295.061 9.85401 295.193 9.82273 295.383 9.78519C295.686 9.72263 295.869 9.66632 295.932 9.61626C295.999 9.56622 296.08 9.44525 296.175 9.25339L297.369 5.9437L298.77 2.05214Q298.965 2.0584 299.142 2.0584L299.408 2.0584L299.462 2.17101L300.49 4.7487C300.723 5.2951 300.932 5.8269 301.117 6.34411C301.302 6.85715 301.462 7.27633 301.596 7.60167C301.675 7.79771 301.783 8.09177 301.921 8.48384C301.992 8.69656 302.1 8.9635 302.246 9.28467C302.325 9.45985 302.384 9.56204 302.423 9.59124C302.494 9.65381 302.609 9.69552 302.766 9.71637C302.928 9.73723 303.101 9.78519 303.286 9.86028C303.306 9.99792 303.316 10.1001 303.316 10.1668C303.316 10.196 303.314 10.2419 303.31 10.3045C303.018 10.3045 302.697 10.2899 302.346 10.2607C301.996 10.2315 301.68 10.2169 301.401 10.2169C301.089 10.2169 300.865 10.2211 300.727 10.2294L299.722 10.2857L299.432 10.2982C299.432 10.1522 299.438 10.0125 299.45 9.87904L300.106 9.72888C300.303 9.67466 300.417 9.63295 300.449 9.60375C300.488 9.56204 300.508 9.51408 300.508 9.45985C300.508 9.40563 300.498 9.34932 300.478 9.29092L300.242 8.67779L299.775 7.45152L297.517 7.44526C297.434 7.64546 297.262 8.13556 297.002 8.91553C296.927 9.1366 296.89 9.28676 296.89 9.366C296.89 9.47446 296.918 9.55161 296.973 9.5975C297.063 9.67674 297.237 9.73306 297.493 9.76643C297.529 9.77477 297.668 9.79771 297.913 9.83524C297.917 9.9854 297.919 10.0897 297.919 10.1481C297.919 10.194 297.915 10.2419 297.907 10.292Q297.54 10.292 296.157 10.1856L295.915 10.2294C295.623 10.2795 295.345 10.3045 295.081 10.3045L294.975 10.3045ZM253.226 10.2795C253.226 10.1502 253.238 10.0021 253.262 9.83524C253.297 9.8269 253.38 9.81439 253.51 9.79771L253.764 9.74765C254.013 9.70177 254.2 9.65172 254.326 9.5975L254.403 8.03337L254.379 6.76955L254.385 6.37539L254.403 4.62357L254.397 4.07925L254.397 3.81022C254.397 3.31387 254.364 2.98019 254.296 2.80917C254.273 2.79666 254.237 2.78832 254.19 2.78415C254.155 2.77998 254.117 2.77372 254.078 2.76538C253.896 2.73201 253.733 2.71116 253.587 2.70281L253.498 2.67779C253.388 2.66528 253.307 2.64859 253.256 2.62774C253.244 2.50677 253.238 2.42961 253.238 2.39625C253.238 2.34619 253.25 2.27737 253.274 2.18978Q253.404 2.1585 253.552 2.1585C253.788 2.1585 254.032 2.16892 254.285 2.18978C254.998 2.244 255.774 2.27112 256.614 2.27112L258.517 2.23983L259.918 2.25235C260.967 2.25235 261.708 2.22523 262.141 2.17101C262.311 2.15015 262.427 2.13973 262.49 2.13973C262.565 2.13973 262.687 2.14807 262.856 2.16476C262.853 2.3316 262.843 2.47967 262.827 2.60897C262.295 2.71741 261.944 2.82378 261.775 2.92805C261.743 3.01147 261.727 3.24713 261.727 3.63504L261.727 3.76017L261.733 4.07299L261.739 5.46819L261.733 6.56934L261.745 7.38895L261.745 8.27737L261.757 9.01564C261.757 9.16163 261.753 9.32847 261.745 9.51616C261.828 9.54119 261.905 9.56204 261.976 9.57873C262.346 9.66215 262.626 9.74765 262.815 9.83524L262.833 10.2732L262.555 10.2795C262.504 10.2795 262.435 10.2753 262.348 10.2669L261.905 10.2419Q261.42 10.1856 260.356 10.1856C260.123 10.1856 259.908 10.194 259.711 10.2106L259.091 10.2669C259.032 10.2669 258.965 10.2544 258.89 10.2294C258.894 10.0292 258.904 9.89364 258.919 9.82273L259.321 9.72263L259.552 9.67883C259.8 9.63712 259.962 9.60167 260.037 9.57247C260.088 9.36809 260.114 8.07091 260.114 5.68092L260.078 2.97185C259.952 2.95934 259.794 2.95099 259.605 2.94682L256.862 2.91553L256.809 2.90928Q256.791 2.90302 256.768 2.90302C256.74 2.90302 256.708 2.90511 256.673 2.90928L256.413 2.91553C256.196 2.91553 256.056 2.93014 255.993 2.95934Q255.964 3.61001 255.964 4.09802L255.981 7.32013L255.981 9.12826C255.981 9.35767 255.987 9.51199 255.999 9.59124C256.023 9.62044 256.092 9.6413 256.206 9.65381L256.478 9.6976C256.592 9.71429 256.702 9.73306 256.809 9.75391L257.028 9.80396C257.079 9.8123 257.122 9.83107 257.158 9.86028Q257.176 10.0042 257.176 10.0542C257.176 10.1084 257.167 10.1835 257.152 10.2795L256.785 10.2857Q256.561 10.2857 256.153 10.2482L255.709 10.2419L255.408 10.2106L254.787 10.2044C254.629 10.2044 254.448 10.219 254.243 10.2482L253.859 10.2795L253.226 10.2795ZM18.7341 8.03963Q21.8792 4.67987 22.8486 3.50365C22.8486 3.19499 22.8389 3.01773 22.8191 2.97185C22.7993 2.92179 22.7344 2.86966 22.624 2.81543C22.5137 2.75704 22.2988 2.68822 21.9795 2.60897C21.8259 2.57143 21.7253 2.54223 21.678 2.52138C21.686 2.36705 21.7017 2.24818 21.7253 2.16476L21.8909 2.1585C22.2219 2.1585 22.4426 2.16476 22.553 2.17727C22.8643 2.21898 23.1758 2.23983 23.4871 2.23983C23.9915 2.23983 24.4526 2.2169 24.8704 2.17101C25.0242 2.15433 25.1462 2.14599 25.2368 2.14599C25.3237 2.14599 25.4478 2.15224 25.6094 2.16476C25.6055 2.3316 25.5955 2.47967 25.5798 2.60897C25.1306 2.70907 24.835 2.79041 24.6931 2.85297C24.5552 2.91137 24.4861 3.01773 24.4861 3.17205L24.4861 4.07925L24.4919 5.46819L24.4802 6.26277L24.498 7.38895L24.498 8.27737L24.5098 9.01564C24.5098 9.16163 24.5059 9.32847 24.498 9.51616C24.5808 9.54119 24.6575 9.56204 24.7285 9.57873C25.0989 9.66215 25.3789 9.74765 25.5679 9.83524L25.5857 10.2732L25.3315 10.2795C25.2644 10.2795 25.1877 10.2753 25.1011 10.2669L24.6575 10.2419C24.3345 10.2044 23.8181 10.1856 23.1086 10.1856C22.7461 10.1856 22.4683 10.1981 22.2751 10.2231C22.0269 10.2523 21.8772 10.2669 21.8259 10.2669C21.7825 10.2669 21.7214 10.2544 21.6426 10.2294C21.6465 10.0292 21.6565 9.89364 21.6721 9.82273L22.0742 9.72263L22.3047 9.67883C22.553 9.63712 22.7146 9.60167 22.7896 9.57247C22.8408 9.26382 22.8665 8.52554 22.8665 7.35767L22.8604 5.51199L22.8723 4.34828L18.7341 8.85923C18.738 9.32639 18.7439 9.57039 18.7517 9.59124C18.7754 9.62044 18.8445 9.6413 18.9587 9.65381L19.343 9.71637C19.6819 9.78311 19.8711 9.83107 19.9104 9.86028C19.9224 9.95621 19.9282 10.0209 19.9282 10.0542C19.9282 10.1084 19.9204 10.1835 19.9045 10.2795L19.5381 10.2857C19.3884 10.2857 19.1775 10.2732 18.9055 10.2482L18.4622 10.2419L18.1606 10.2231L17.6228 10.2044C17.4492 10.2044 17.2385 10.2169 16.9902 10.2419C16.7378 10.2669 16.4009 10.2795 15.9792 10.2795C15.9792 10.1502 15.991 10.0021 16.0146 9.83524C16.0503 9.8269 16.1331 9.81439 16.2629 9.79771L16.5171 9.74765C16.7654 9.70177 16.9526 9.65172 17.0789 9.5975Q17.1379 8.41502 17.1379 7.53284L17.1379 6.70073L17.1558 4.58603C17.1558 3.94786 17.134 3.39938 17.0906 2.94057C17.0867 2.91553 17.073 2.87174 17.0493 2.80917C17.0256 2.79666 16.9902 2.78832 16.9429 2.78415C16.9075 2.77998 16.8699 2.77372 16.8306 2.76538C16.6492 2.73201 16.4856 2.71116 16.3398 2.70281L16.2512 2.67779C16.1409 2.66528 16.0601 2.64859 16.0088 2.62774C15.9971 2.50677 15.991 2.42961 15.991 2.39625C15.991 2.34619 16.0029 2.27737 16.0266 2.18978C16.1133 2.16892 16.2058 2.1585 16.3044 2.1585C16.592 2.1585 16.927 2.17727 17.3093 2.21481C17.6562 2.24818 17.9438 2.26486 18.1724 2.26486C18.4917 2.26486 18.7854 2.25026 19.0532 2.22106Q19.5498 2.16476 19.6387 2.16476C19.7134 2.16476 19.8081 2.17519 19.9224 2.19604L19.9282 2.38374C19.9282 2.45047 19.9204 2.53181 19.9045 2.62774L18.8643 2.80292C18.8049 2.81126 18.7695 2.90928 18.7578 3.09698C18.7458 3.28467 18.74 3.50782 18.74 3.76643L18.7458 4.06048L18.74 4.62357L18.7458 4.94891L18.7283 5.37435C18.7283 5.42857 18.7322 5.52659 18.74 5.6684C18.7478 5.8561 18.7517 6.04171 18.7517 6.22523C18.7517 6.37539 18.7478 6.52555 18.74 6.6757L18.7222 7.00105L18.7341 8.03963ZM55.9539 10.2795C55.9539 10.1543 55.9658 10.0063 55.9895 9.83524L56.7283 9.6976C56.8191 9.67674 56.9275 9.64338 57.0535 9.5975L57.1304 8.03337C57.1145 7.47028 57.1067 7.04901 57.1067 6.76955L57.1125 6.61939C57.1245 6.44839 57.1304 6.01877 57.1304 5.33055L57.1187 5.14912L57.1304 4.62357L57.1245 4.07925L57.1245 3.81022Q57.1245 3.44734 57.0713 2.95934C57.0674 2.93014 57.0515 2.88008 57.0239 2.80917C56.9924 2.79666 56.957 2.78832 56.9175 2.78415C56.8821 2.77998 56.8447 2.77372 56.8052 2.76538C56.6516 2.73618 56.488 2.71533 56.3145 2.70281L56.2258 2.67779C56.1194 2.66528 56.0388 2.64859 55.9836 2.62774C55.9717 2.50677 55.9658 2.42961 55.9658 2.39625C55.9658 2.34619 55.9775 2.27737 56.0012 2.18978Q56.1194 2.16476 56.3323 2.16476C56.4741 2.16476 56.5728 2.16267 56.6279 2.1585C57.1086 2.21272 57.4653 2.24192 57.698 2.24609C57.8042 2.24609 57.9106 2.25026 58.0171 2.25861Q58.1826 2.26486 58.3069 2.26486C58.4368 2.26486 58.7542 2.244 59.2585 2.20229Q59.3828 2.17101 59.5305 2.17101C59.6763 2.17101 59.7986 2.17935 59.897 2.19604C59.9009 2.28363 59.9031 2.34619 59.9031 2.38374C59.9031 2.45047 59.895 2.53181 59.8794 2.62774L58.8389 2.80292C58.7522 2.84463 58.7087 2.90511 58.7087 2.98436L58.7266 3.21585L58.7324 3.31596L58.7266 3.59124L58.7146 3.80396L58.7146 3.85401C58.7188 3.89989 58.7207 3.93952 58.7207 3.97289L58.7146 4.76746C58.7188 4.84254 58.7207 4.89885 58.7207 4.93639C58.7207 4.95724 58.7168 5.02399 58.7087 5.1366C58.7048 5.20334 58.7029 5.27216 58.7029 5.34306C58.7029 5.40563 58.7087 5.5537 58.7207 5.78728C58.8311 5.80814 58.9236 5.82065 58.9985 5.82481L59.8733 5.84359L60.2991 5.84359L61.363 5.84985L62.3977 5.81856C62.5317 5.81856 62.6736 5.80396 62.8232 5.77477C62.8313 5.63295 62.8372 5.28467 62.8411 4.72993L62.8528 4.44838L62.8174 3.38477L62.7761 2.94682C62.7642 2.91763 62.7366 2.89051 62.6934 2.86549C62.5554 2.78207 62.2795 2.68822 61.8657 2.58394C61.7908 2.56726 61.7197 2.5464 61.6528 2.52138C61.6606 2.37539 61.6765 2.25652 61.7002 2.16476Q61.8301 2.1585 61.8596 2.1585L62.4331 2.16476C62.7996 2.21481 63.1721 2.23983 63.5505 2.23983C63.6372 2.23983 63.7061 2.23775 63.7573 2.23357L64.5259 2.20855C64.5969 2.20438 64.6658 2.20021 64.7327 2.19604C64.8748 2.16267 65.0205 2.14599 65.1702 2.14599C65.2844 2.14599 65.4226 2.15224 65.584 2.16476C65.5801 2.32742 65.5703 2.47549 65.5544 2.60897C65.1919 2.68822 64.9534 2.74661 64.8391 2.78415C64.7288 2.81752 64.6165 2.86549 64.5022 2.92805L64.4668 3.05318L64.4668 3.15954L64.4727 3.32221L64.4668 3.40355C64.459 3.49113 64.4548 3.55788 64.4548 3.60375L64.4548 3.76017C64.459 3.94786 64.4609 4.05214 64.4609 4.07299L64.4609 4.86757L64.4668 5.46819L64.4548 6.26277C64.4541 6.2995 64.4539 6.3439 64.4539 6.39598C64.4539 6.6042 64.46 6.9352 64.4727 7.38895L64.4727 8.27737L64.4846 9.01564C64.4846 9.15328 64.4805 9.32012 64.4727 9.51616Q64.5969 9.5537 64.7031 9.57873C65.0737 9.66215 65.3535 9.74765 65.5427 9.83524L65.5603 10.2732C65.4028 10.2774 65.3101 10.2795 65.2825 10.2795C65.0935 10.2795 64.8767 10.2669 64.6323 10.2419C64.3091 10.2044 63.7888 10.1856 63.0715 10.1856C62.7485 10.1856 62.3306 10.2127 61.8184 10.2669C61.7632 10.2669 61.696 10.2544 61.6174 10.2294C61.6213 10.0375 61.6311 9.90198 61.647 9.82273L62.1021 9.71011L62.5811 9.62878C62.6282 9.61626 62.6892 9.5975 62.7642 9.57247C62.8076 9.23462 62.8313 8.67361 62.8352 7.88947L62.8411 7.35767C62.8174 7.1366 62.8057 6.87174 62.8057 6.56309C62.6597 6.55058 62.5022 6.54223 62.3328 6.53806L59.5896 6.50677L59.5364 6.50052L59.4951 6.49426Q59.4536 6.49426 59.4004 6.50052C59.2981 6.50469 59.2112 6.50677 59.1404 6.50677L58.9749 6.50677C58.8999 6.50677 58.8152 6.52138 58.7207 6.55058L58.697 7.01981L58.697 7.10115C58.7048 7.21377 58.7087 7.28676 58.7087 7.32013L58.7087 9.25964Q58.7087 9.42232 58.7266 9.59124L58.7856 9.62878L59.6548 9.77268C59.698 9.78937 59.7314 9.79979 59.7551 9.80396C59.8064 9.81647 59.8499 9.83524 59.8853 9.86028Q59.9031 10.0042 59.9031 10.0542C59.9031 10.1084 59.895 10.1835 59.8794 10.2795Q59.6665 10.2857 59.5188 10.2857C59.4319 10.2857 59.3513 10.2836 59.2764 10.2795Q59.2231 10.2795 59.1758 10.2732L58.3423 10.2357C58.1453 10.2148 57.8694 10.2044 57.5146 10.2044L57.3904 10.2106C57.2249 10.219 57.1284 10.2252 57.1008 10.2294C56.8564 10.2628 56.4741 10.2795 55.9539 10.2795ZM67.5408 2.91553C67.458 2.88634 67.3811 2.86549 67.3103 2.85297C66.9397 2.76955 66.6599 2.68404 66.4709 2.59645L66.4531 2.15224L66.7368 2.15224L66.9438 2.1585L67.3811 2.18978C67.7043 2.22732 68.2207 2.24609 68.9302 2.24609C69.1626 2.24609 69.3774 2.23775 69.5745 2.22106L70.1951 2.16476C70.2544 2.16476 70.3213 2.17519 70.3962 2.19604C70.3962 2.39625 70.3882 2.53389 70.3726 2.60897L69.9646 2.70907L69.7341 2.74661C69.4858 2.78832 69.3242 2.82378 69.2493 2.85297C69.198 3.06152 69.1724 4.3587 69.1724 6.74452L69.208 9.4536C69.334 9.47028 69.4917 9.47862 69.6809 9.47862L72.4238 9.51616L72.613 9.52242C73.011 9.52242 73.2397 9.50574 73.2988 9.47237L73.3225 8.32742L73.3105 5.11157L73.3047 3.30344C73.3047 3.06986 73.2988 2.91345 73.2869 2.83421C73.2634 2.80917 73.1943 2.79041 73.0801 2.77789L72.814 2.7341C72.6958 2.71741 72.5854 2.69656 72.4829 2.67153L72.2642 2.62774C72.209 2.61523 72.1658 2.59645 72.1343 2.57143C72.1184 2.47549 72.1106 2.41084 72.1106 2.37748Q72.1106 2.28989 72.1343 2.15224L72.5007 2.14599C72.6504 2.14599 72.8633 2.15641 73.1392 2.17727L74.5049 2.22732C74.6584 2.22732 74.8398 2.21063 75.0486 2.17727L75.427 2.15224L76.0596 2.14599C76.0596 2.27946 76.0476 2.42961 76.0242 2.59645L75.5276 2.68404C75.2793 2.72993 75.092 2.77789 74.9658 2.82794L74.8831 4.39207L74.9126 5.66215L74.9009 6.0563L74.8831 7.80814L74.895 8.34619L74.895 8.61523C74.895 9.07821 74.9363 9.38061 75.019 9.52242C75.1018 9.66423 75.2673 9.77268 75.5156 9.84776C75.6694 9.89781 75.7659 9.96663 75.8054 10.0542C75.8447 10.1376 75.8684 10.3983 75.8762 10.8363L75.9177 11.4682C75.9294 11.6267 75.9373 11.7915 75.9414 11.9625C75.8586 11.9833 75.7463 11.9958 75.6042 12C75.5334 11.8665 75.4624 11.7164 75.3916 11.5495C75.2102 11.1116 75.0505 10.8217 74.9126 10.6799C74.7788 10.5422 74.6152 10.4463 74.4221 10.3921C74.229 10.342 73.6042 10.2941 72.5481 10.2482C71.4917 10.2023 70.4316 10.1794 69.3674 10.1794C68.3191 10.1794 67.5803 10.2044 67.1506 10.2544C66.9812 10.2753 66.863 10.2857 66.7959 10.2857C66.7212 10.2857 66.5989 10.2774 66.4294 10.2607C66.4333 10.098 66.4431 9.94995 66.459 9.81647C66.991 9.70803 67.3418 9.60375 67.5112 9.50365C67.5466 9.42023 67.5645 9.18457 67.5645 8.79666C67.5645 8.76746 67.5625 8.72575 67.5586 8.67153L67.5527 8.3587L67.5466 6.9635L67.5527 5.8561L67.5408 5.0365L67.5466 4.14807L67.5291 3.41606C67.5291 3.27007 67.533 3.10323 67.5408 2.91553ZM85.3999 2.62148L85.394 2.14599L86.8069 2.23983L87.4395 2.23357L87.6702 2.23357C87.9104 2.23357 88.2869 2.21898 88.7993 2.18978C89.0908 2.16892 89.2742 2.1585 89.3489 2.1585C89.8455 2.1585 90.22 2.1877 90.4722 2.24609Q91.0515 2.37122 91.3884 2.64651C91.6172 2.83003 91.8123 3.0928 91.9739 3.43483Q92.2222 3.9416 92.2222 4.37956C92.2222 5.10532 92.0054 5.69552 91.5718 6.15015C91.1421 6.60062 90.5984 6.82586 89.9402 6.82586C89.7117 6.82586 89.4929 6.79666 89.2839 6.73827C89.0791 6.67988 88.886 6.59229 88.7046 6.47549Q88.675 6.29406 88.675 5.97498C88.7695 5.98331 88.8545 5.98957 88.9292 5.99374C89.0081 5.99792 89.0771 6 89.1362 6C89.4712 6 89.7529 5.90198 89.9814 5.70594C90.2849 5.45152 90.4368 5.03858 90.4368 4.46716Q90.4368 3.85401 90.2358 3.46611C90.1057 3.20334 89.95 3.02607 89.7688 2.9343C89.5164 2.80917 89.2327 2.74661 88.9175 2.74661C88.6218 2.74661 88.4109 2.7925 88.2849 2.88425C88.2534 2.93848 88.2297 2.99062 88.2139 3.04066L88.2554 5.98749L88.2434 6.23775L88.2612 6.50052C88.2651 6.55891 88.2671 6.64442 88.2671 6.75704L88.2671 7.27007L88.2729 8.08968L88.2612 9.06569C88.2612 9.20334 88.2729 9.38895 88.2966 9.62252L89.4731 9.77894C89.489 9.87904 89.4968 9.95829 89.4968 10.0167C89.4968 10.0792 89.4868 10.1668 89.4673 10.2795C89.3687 10.2961 89.2937 10.3045 89.2427 10.3045C89.1204 10.3045 88.8899 10.2899 88.551 10.2607Q88.0425 10.2106 87.3923 10.2106C86.9036 10.2106 86.4385 10.244 85.9971 10.3107C85.9221 10.3233 85.804 10.3337 85.6423 10.342C85.6267 10.2211 85.6187 10.1314 85.6187 10.073C85.6187 10.0355 85.6226 9.97706 85.6306 9.89781L85.9912 9.77268C86.2395 9.69343 86.4543 9.5975 86.6355 9.48488C86.6709 9.36392 86.6887 9.25339 86.6887 9.15328C86.6887 9.11157 86.6868 9.06361 86.6829 9.00938C86.679 8.88008 86.677 8.69865 86.677 8.46507L86.6592 6.70699L86.5942 4.72367C86.5667 3.78102 86.5449 3.27216 86.5291 3.19708C86.5015 3.07612 86.4543 2.98228 86.3872 2.91553Q86.2869 2.80917 86.0503 2.76538C85.7231 2.70699 85.5063 2.65902 85.3999 2.62148ZM101.261 10.2795C101.261 10.1543 101.273 10.0063 101.296 9.83524L102.035 9.6976C102.126 9.67674 102.234 9.64338 102.361 9.5975L102.438 8.03337Q102.414 7.18874 102.414 6.76955L102.42 6.61939C102.431 6.44839 102.438 6.01877 102.438 5.33055L102.426 5.14912L102.438 4.62357L102.431 4.07925L102.431 3.81022C102.431 3.5683 102.414 3.28467 102.378 2.95934C102.374 2.93014 102.359 2.88008 102.331 2.80917C102.3 2.79666 102.264 2.78832 102.225 2.78415C102.189 2.77998 102.152 2.77372 102.112 2.76538C101.958 2.73618 101.795 2.71533 101.622 2.70281L101.533 2.67779C101.427 2.66528 101.346 2.64859 101.291 2.62774C101.279 2.50677 101.273 2.42961 101.273 2.39625C101.273 2.34619 101.285 2.27737 101.308 2.18978C101.387 2.1731 101.498 2.16476 101.639 2.16476C101.781 2.16476 101.88 2.16267 101.935 2.1585C102.416 2.21272 102.772 2.24192 103.005 2.24609C103.111 2.24609 103.218 2.25026 103.324 2.25861Q103.49 2.26486 103.614 2.26486C103.744 2.26486 104.061 2.244 104.566 2.20229Q104.69 2.17101 104.838 2.17101Q105.056 2.17101 105.204 2.19604C105.208 2.28363 105.21 2.34619 105.21 2.38374Q105.21 2.48384 105.186 2.62774L104.146 2.80292C104.059 2.84463 104.016 2.90511 104.016 2.98436L104.034 3.21585L104.04 3.31596L104.034 3.59124L104.022 3.80396L104.022 3.85401C104.026 3.89989 104.028 3.93952 104.028 3.97289L104.022 4.76746C104.026 4.84254 104.028 4.89885 104.028 4.93639C104.028 4.95724 104.024 5.02399 104.016 5.1366C104.012 5.20334 104.01 5.27216 104.01 5.34306C104.01 5.40563 104.016 5.5537 104.028 5.78728C104.138 5.80814 104.231 5.82065 104.305 5.82481L105.18 5.84359L105.606 5.84359L106.67 5.84985L107.705 5.81856C107.839 5.81856 107.981 5.80396 108.13 5.77477C108.138 5.63295 108.144 5.28467 108.148 4.72993L108.16 4.44838L108.125 3.38477L108.083 2.94682C108.071 2.91763 108.044 2.89051 108 2.86549C107.862 2.78207 107.586 2.68822 107.173 2.58394C107.098 2.56726 107.027 2.5464 106.96 2.52138C106.968 2.37539 106.983 2.25652 107.007 2.16476C107.094 2.16058 107.147 2.1585 107.167 2.1585L107.74 2.16476C108.107 2.21481 108.479 2.23983 108.857 2.23983Q108.988 2.23983 109.064 2.23357L109.833 2.20855C109.904 2.20438 109.973 2.20021 110.04 2.19604Q110.253 2.14599 110.477 2.14599C110.592 2.14599 110.729 2.15224 110.891 2.16476C110.887 2.32742 110.877 2.47549 110.862 2.60897C110.499 2.68822 110.26 2.74661 110.146 2.78415C110.036 2.81752 109.924 2.86549 109.809 2.92805L109.774 3.05318L109.774 3.15954L109.78 3.32221L109.774 3.40355C109.766 3.49113 109.762 3.55788 109.762 3.60375L109.762 3.76017C109.766 3.94786 109.768 4.05214 109.768 4.07299L109.768 4.86757L109.774 5.46819L109.762 6.26277C109.761 6.29948 109.761 6.34385 109.761 6.3959C109.761 6.60412 109.767 6.93513 109.78 7.38895L109.78 8.27737L109.792 9.01564C109.792 9.15328 109.788 9.32012 109.78 9.51616C109.863 9.54119 109.939 9.56204 110.01 9.57873C110.381 9.66215 110.661 9.74765 110.85 9.83524L110.867 10.2732C110.71 10.2774 110.617 10.2795 110.59 10.2795C110.4 10.2795 110.184 10.2669 109.939 10.2419C109.616 10.2044 109.096 10.1856 108.379 10.1856C108.055 10.1856 107.638 10.2127 107.125 10.2669C107.07 10.2669 107.003 10.2544 106.924 10.2294C106.928 10.0375 106.938 9.90198 106.954 9.82273L107.409 9.71011L107.888 9.62878C107.935 9.61626 107.996 9.5975 108.071 9.57247C108.115 9.23462 108.138 8.67361 108.142 7.88947L108.148 7.35767C108.125 7.1366 108.113 6.87174 108.113 6.56309C107.967 6.55058 107.809 6.54223 107.64 6.53806L104.897 6.50677L104.844 6.50052L104.802 6.49426C104.774 6.49426 104.743 6.49635 104.708 6.50052C104.605 6.50469 104.518 6.50677 104.448 6.50677L104.282 6.50677C104.207 6.50677 104.122 6.52138 104.028 6.55058L104.004 7.01981L104.004 7.10115C104.012 7.21377 104.016 7.28676 104.016 7.32013L104.016 9.25964C104.016 9.36809 104.022 9.47862 104.034 9.59124L104.093 9.62878L104.962 9.77268C105.005 9.78937 105.039 9.79979 105.062 9.80396C105.114 9.81647 105.157 9.83524 105.192 9.86028C105.204 9.95621 105.21 10.0209 105.21 10.0542C105.21 10.1084 105.202 10.1835 105.186 10.2795C105.044 10.2836 104.924 10.2857 104.826 10.2857C104.739 10.2857 104.658 10.2836 104.583 10.2795C104.548 10.2795 104.514 10.2774 104.483 10.2732L103.649 10.2357C103.452 10.2148 103.177 10.2044 102.822 10.2044L102.698 10.2106C102.532 10.219 102.436 10.2252 102.408 10.2294C102.164 10.2628 101.781 10.2795 101.261 10.2795ZM172.81 2.62148L172.804 2.14599L174.217 2.23983L174.849 2.23357L175.08 2.23357Q175.441 2.23357 176.209 2.18978C176.501 2.16892 176.684 2.1585 176.759 2.1585C177.256 2.1585 177.63 2.1877 177.882 2.24609C178.268 2.32951 178.574 2.46298 178.799 2.64651C179.027 2.83003 179.222 3.0928 179.384 3.43483C179.549 3.77268 179.632 4.08759 179.632 4.37956C179.632 5.10532 179.415 5.69552 178.982 6.15015C178.552 6.60062 178.008 6.82586 177.35 6.82586C177.122 6.82586 176.903 6.79666 176.694 6.73827C176.489 6.67988 176.296 6.59229 176.115 6.47549C176.095 6.35454 176.085 6.1877 176.085 5.97498C176.18 5.98331 176.264 5.98957 176.339 5.99374C176.418 5.99792 176.487 6 176.546 6C176.881 6 177.163 5.90198 177.392 5.70594C177.695 5.45152 177.847 5.03858 177.847 4.46716C177.847 4.0584 177.78 3.72472 177.646 3.46611C177.516 3.20334 177.36 3.02607 177.179 2.9343C176.927 2.80917 176.643 2.74661 176.327 2.74661C176.032 2.74661 175.821 2.7925 175.695 2.88425C175.663 2.93848 175.64 2.99062 175.624 3.04066L175.665 5.98749L175.654 6.23775L175.671 6.50052C175.675 6.55891 175.677 6.64442 175.677 6.75704L175.677 7.27007L175.683 8.08968L175.671 9.06569C175.671 9.20334 175.683 9.38895 175.707 9.62252L176.883 9.77894C176.899 9.87904 176.907 9.95829 176.907 10.0167C176.907 10.0792 176.897 10.1668 176.877 10.2795C176.779 10.2961 176.704 10.3045 176.653 10.3045C176.53 10.3045 176.3 10.2899 175.961 10.2607Q175.452 10.2106 174.802 10.2106C174.313 10.2106 173.848 10.244 173.407 10.3107C173.332 10.3233 173.214 10.3337 173.052 10.342C173.037 10.2211 173.029 10.1314 173.029 10.073Q173.029 10.0167 173.041 9.89781L173.401 9.77268C173.649 9.69343 173.864 9.5975 174.045 9.48488C174.081 9.36392 174.099 9.25339 174.099 9.15328C174.099 9.11157 174.097 9.06361 174.093 9.00938C174.089 8.88008 174.087 8.69865 174.087 8.46507L174.069 6.70699L174.004 4.72367C173.977 3.78102 173.955 3.27216 173.939 3.19708C173.911 3.07612 173.864 2.98228 173.797 2.91553C173.73 2.84463 173.618 2.79458 173.46 2.76538C173.133 2.70699 172.916 2.65902 172.81 2.62148ZM191.308 8.03963Q194.453 4.67987 195.422 3.50365C195.422 3.19499 195.412 3.01773 195.393 2.97185C195.373 2.92179 195.308 2.86966 195.198 2.81543C195.087 2.75704 194.872 2.68822 194.553 2.60897C194.399 2.57143 194.299 2.54223 194.252 2.52138C194.26 2.36705 194.275 2.24818 194.299 2.16476L194.464 2.1585C194.795 2.1585 195.016 2.16476 195.126 2.17727C195.438 2.21898 195.749 2.23983 196.061 2.23983C196.565 2.23983 197.026 2.2169 197.444 2.17101Q197.675 2.14599 197.81 2.14599C197.897 2.14599 198.021 2.15224 198.183 2.16476C198.179 2.3316 198.169 2.47967 198.153 2.60897C197.704 2.70907 197.408 2.79041 197.267 2.85297C197.129 2.91137 197.06 3.01773 197.06 3.17205L197.06 4.07925L197.065 5.46819L197.054 6.26277L197.072 7.38895L197.072 8.27737L197.083 9.01564C197.083 9.16163 197.079 9.32847 197.072 9.51616C197.154 9.54119 197.231 9.56204 197.302 9.57873C197.672 9.66215 197.952 9.74765 198.141 9.83524L198.159 10.2732L197.905 10.2795C197.838 10.2795 197.761 10.2753 197.675 10.2669L197.231 10.2419Q196.746 10.1856 195.682 10.1856C195.32 10.1856 195.042 10.1981 194.849 10.2231Q194.476 10.2669 194.399 10.2669C194.356 10.2669 194.295 10.2544 194.216 10.2294C194.22 10.0292 194.23 9.89364 194.246 9.82273L194.648 9.72263L194.878 9.67883C195.126 9.63712 195.288 9.60167 195.363 9.57247Q195.44 9.10949 195.44 7.35767L195.434 5.51199L195.446 4.34828L191.308 8.85923C191.312 9.32639 191.317 9.57039 191.325 9.59124C191.349 9.62044 191.418 9.6413 191.532 9.65381L191.917 9.71637C192.255 9.78311 192.445 9.83107 192.484 9.86028C192.496 9.95621 192.502 10.0209 192.502 10.0542C192.502 10.1084 192.494 10.1835 192.478 10.2795L192.112 10.2857C191.962 10.2857 191.751 10.2732 191.479 10.2482L191.036 10.2419L190.734 10.2231L190.196 10.2044C190.023 10.2044 189.812 10.2169 189.564 10.2419C189.311 10.2669 188.974 10.2795 188.553 10.2795C188.553 10.1502 188.564 10.0021 188.588 9.83524C188.624 9.8269 188.707 9.81439 188.836 9.79771L189.091 9.74765C189.339 9.70177 189.526 9.65172 189.652 9.5975Q189.711 8.41502 189.711 7.53284L189.711 6.70073L189.729 4.58603C189.729 3.94786 189.708 3.39938 189.664 2.94057C189.66 2.91553 189.646 2.87174 189.623 2.80917C189.599 2.79666 189.564 2.78832 189.516 2.78415C189.481 2.77998 189.443 2.77372 189.404 2.76538C189.223 2.73201 189.059 2.71116 188.913 2.70281L188.825 2.67779C188.714 2.66528 188.634 2.64859 188.582 2.62774C188.571 2.50677 188.564 2.42961 188.564 2.39625C188.564 2.34619 188.576 2.27737 188.6 2.18978C188.687 2.16892 188.779 2.1585 188.878 2.1585C189.166 2.1585 189.5 2.17727 189.883 2.21481C190.23 2.24818 190.517 2.26486 190.746 2.26486C191.065 2.26486 191.359 2.25026 191.627 2.22106C191.958 2.18353 192.153 2.16476 192.212 2.16476C192.287 2.16476 192.382 2.17519 192.496 2.19604L192.502 2.38374C192.502 2.45047 192.494 2.53181 192.478 2.62774L191.438 2.80292C191.378 2.81126 191.343 2.90928 191.331 3.09698C191.319 3.28467 191.313 3.50782 191.313 3.76643L191.319 4.06048L191.313 4.62357L191.319 4.94891L191.302 5.37435C191.302 5.42857 191.306 5.52659 191.313 5.6684C191.321 5.8561 191.325 6.04171 191.325 6.22523C191.325 6.37539 191.321 6.52555 191.313 6.6757L191.296 7.00105L191.308 8.03963ZM208.617 10.2795C208.617 10.1543 208.629 10.0063 208.652 9.83524L209.391 9.6976C209.482 9.67674 209.59 9.64338 209.717 9.5975L209.793 8.03337C209.778 7.47028 209.77 7.04901 209.77 6.76955L209.776 6.61939C209.787 6.44839 209.793 6.01877 209.793 5.33055L209.781 5.14912L209.793 4.62357L209.787 4.07925L209.787 3.81022Q209.787 3.44734 209.734 2.95934C209.73 2.93014 209.715 2.88008 209.687 2.80917C209.656 2.79666 209.62 2.78832 209.581 2.78415C209.545 2.77998 209.508 2.77372 209.468 2.76538C209.314 2.73618 209.151 2.71533 208.978 2.70281L208.889 2.67779C208.782 2.66528 208.702 2.64859 208.646 2.62774C208.635 2.50677 208.629 2.42961 208.629 2.39625C208.629 2.34619 208.641 2.27737 208.664 2.18978C208.743 2.1731 208.854 2.16476 208.995 2.16476C209.137 2.16476 209.236 2.16267 209.291 2.1585C209.772 2.21272 210.128 2.24192 210.361 2.24609C210.467 2.24609 210.574 2.25026 210.68 2.25861Q210.846 2.26486 210.97 2.26486C211.1 2.26486 211.417 2.244 211.922 2.20229C212.004 2.18144 212.095 2.17101 212.194 2.17101Q212.412 2.17101 212.56 2.19604C212.564 2.28363 212.566 2.34619 212.566 2.38374C212.566 2.45047 212.558 2.53181 212.542 2.62774L211.502 2.80292C211.415 2.84463 211.372 2.90511 211.372 2.98436L211.389 3.21585L211.396 3.31596L211.389 3.59124L211.378 3.80396L211.378 3.85401C211.382 3.89989 211.384 3.93952 211.384 3.97289L211.378 4.76746C211.382 4.84254 211.384 4.89885 211.384 4.93639C211.384 4.95724 211.38 5.02399 211.372 5.1366C211.368 5.20334 211.366 5.27216 211.366 5.34306C211.366 5.40563 211.372 5.5537 211.384 5.78728C211.494 5.80814 211.587 5.82065 211.661 5.82481L212.536 5.84359L212.962 5.84359L214.026 5.84985L215.061 5.81856C215.195 5.81856 215.337 5.80396 215.486 5.77477C215.494 5.63295 215.5 5.28467 215.504 4.72993L215.516 4.44838L215.48 3.38477L215.439 2.94682C215.427 2.91763 215.4 2.89051 215.356 2.86549C215.218 2.78207 214.942 2.68822 214.529 2.58394C214.454 2.56726 214.383 2.5464 214.316 2.52138C214.324 2.37539 214.339 2.25652 214.363 2.16476C214.45 2.16058 214.503 2.1585 214.523 2.1585L215.096 2.16476Q215.646 2.23983 216.213 2.23983Q216.344 2.23983 216.42 2.23357L217.189 2.20855C217.26 2.20438 217.329 2.20021 217.396 2.19604C217.538 2.16267 217.684 2.14599 217.833 2.14599C217.948 2.14599 218.085 2.15224 218.247 2.16476C218.243 2.32742 218.233 2.47549 218.218 2.60897C217.855 2.68822 217.616 2.74661 217.502 2.78415C217.392 2.81752 217.28 2.86549 217.165 2.92805L217.13 3.05318L217.13 3.15954L217.136 3.32221L217.13 3.40355C217.122 3.49113 217.118 3.55788 217.118 3.60375L217.118 3.76017Q217.124 4.04171 217.124 4.07299L217.124 4.86757L217.13 5.46819L217.118 6.26277Q217.117 6.318 217.117 6.39639Q217.117 6.70876 217.136 7.38895L217.136 8.27737L217.147 9.01564C217.147 9.15328 217.144 9.32012 217.136 9.51616C217.219 9.54119 217.295 9.56204 217.366 9.57873C217.737 9.66215 218.017 9.74765 218.206 9.83524L218.223 10.2732C218.066 10.2774 217.973 10.2795 217.946 10.2795C217.756 10.2795 217.54 10.2669 217.295 10.2419C216.972 10.2044 216.452 10.1856 215.735 10.1856C215.411 10.1856 214.994 10.2127 214.481 10.2669C214.426 10.2669 214.359 10.2544 214.28 10.2294C214.284 10.0375 214.294 9.90198 214.31 9.82273L214.765 9.71011L215.244 9.62878C215.291 9.61626 215.352 9.5975 215.427 9.57247C215.47 9.23462 215.494 8.67361 215.498 7.88947L215.504 7.35767C215.48 7.1366 215.469 6.87174 215.469 6.56309C215.323 6.55058 215.165 6.54223 214.996 6.53806L212.253 6.50677L212.199 6.50052L212.158 6.49426C212.13 6.49426 212.099 6.49635 212.063 6.50052Q211.91 6.50677 211.803 6.50677L211.638 6.50677C211.563 6.50677 211.478 6.52138 211.384 6.55058L211.36 7.01981L211.36 7.10115C211.368 7.21377 211.372 7.28676 211.372 7.32013L211.372 9.25964C211.372 9.36809 211.378 9.47862 211.389 9.59124L211.449 9.62878L212.318 9.77268C212.361 9.78937 212.395 9.79979 212.418 9.80396C212.469 9.81647 212.513 9.83524 212.548 9.86028C212.56 9.95621 212.566 10.0209 212.566 10.0542C212.566 10.1084 212.558 10.1835 212.542 10.2795C212.4 10.2836 212.28 10.2857 212.182 10.2857C212.095 10.2857 212.014 10.2836 211.939 10.2795C211.904 10.2795 211.87 10.2774 211.839 10.2732L211.005 10.2357C210.808 10.2148 210.532 10.2044 210.178 10.2044L210.053 10.2106C209.888 10.219 209.792 10.2252 209.764 10.2294C209.52 10.2628 209.137 10.2795 208.617 10.2795ZM219.093 10.2795C219.093 10.1543 219.104 10.0063 219.128 9.83524L219.867 9.6976C219.958 9.67674 220.066 9.64338 220.192 9.5975L220.269 8.03337C220.253 7.47028 220.245 7.04901 220.245 6.76955L220.251 6.61939C220.263 6.44839 220.269 6.01877 220.269 5.33055L220.257 5.14912L220.269 4.62357L220.263 4.07925L220.263 3.81022C220.263 3.5683 220.245 3.28467 220.21 2.95934C220.206 2.93014 220.19 2.88008 220.162 2.80917C220.131 2.79666 220.095 2.78832 220.056 2.78415C220.021 2.77998 219.983 2.77372 219.944 2.76538C219.79 2.73618 219.626 2.71533 219.453 2.70281L219.364 2.67779C219.258 2.66528 219.177 2.64859 219.122 2.62774C219.11 2.50677 219.104 2.42961 219.104 2.39625C219.104 2.34619 219.116 2.27737 219.14 2.18978Q219.258 2.16476 219.471 2.16476C219.613 2.16476 219.711 2.16267 219.766 2.1585C220.247 2.21272 220.604 2.24192 220.836 2.24609C220.943 2.24609 221.049 2.25026 221.156 2.25861C221.266 2.26277 221.363 2.26486 221.445 2.26486C221.575 2.26486 221.893 2.244 222.397 2.20229C222.48 2.18144 222.571 2.17101 222.669 2.17101Q222.888 2.17101 223.035 2.19604C223.04 2.28363 223.042 2.34619 223.042 2.38374C223.042 2.45047 223.033 2.53181 223.018 2.62774L221.977 2.80292C221.891 2.84463 221.847 2.90511 221.847 2.98436L221.865 3.21585L221.871 3.31596L221.865 3.59124L221.853 3.80396L221.853 3.85401C221.857 3.89989 221.859 3.93952 221.859 3.97289L221.853 4.76746C221.857 4.84254 221.859 4.89885 221.859 4.93639C221.859 4.95724 221.855 5.02399 221.847 5.1366C221.843 5.20334 221.841 5.27216 221.841 5.34306C221.841 5.40563 221.847 5.5537 221.859 5.78728C221.969 5.80814 222.062 5.82065 222.137 5.82481L223.012 5.84359L223.438 5.84359L224.502 5.84985L225.536 5.81856C225.67 5.81856 225.812 5.80396 225.962 5.77477C225.97 5.63295 225.976 5.28467 225.979 4.72993L225.991 4.44838L225.956 3.38477L225.915 2.94682C225.903 2.91763 225.875 2.89051 225.832 2.86549C225.694 2.78207 225.418 2.68822 225.004 2.58394C224.929 2.56726 224.858 2.5464 224.791 2.52138C224.799 2.37539 224.815 2.25652 224.839 2.16476Q224.969 2.1585 224.998 2.1585L225.572 2.16476C225.938 2.21481 226.311 2.23983 226.689 2.23983C226.776 2.23983 226.844 2.23775 226.896 2.23357L227.664 2.20855C227.735 2.20438 227.804 2.20021 227.871 2.19604C228.013 2.16267 228.159 2.14599 228.309 2.14599C228.423 2.14599 228.561 2.15224 228.722 2.16476C228.719 2.32742 228.709 2.47549 228.693 2.60897C228.33 2.68822 228.092 2.74661 227.978 2.78415C227.867 2.81752 227.755 2.86549 227.641 2.92805L227.605 3.05318L227.605 3.15954L227.611 3.32221L227.605 3.40355C227.597 3.49113 227.594 3.55788 227.594 3.60375L227.594 3.76017C227.597 3.94786 227.599 4.05214 227.599 4.07299L227.599 4.86757L227.605 5.46819L227.594 6.26277C227.593 6.29948 227.592 6.34386 227.592 6.39591C227.592 6.60413 227.599 6.93514 227.611 7.38895L227.611 8.27737L227.623 9.01564C227.623 9.15328 227.619 9.32012 227.611 9.51616C227.694 9.54119 227.771 9.56204 227.842 9.57873C228.212 9.66215 228.492 9.74765 228.681 9.83524L228.699 10.2732C228.541 10.2774 228.449 10.2795 228.421 10.2795C228.232 10.2795 228.015 10.2669 227.771 10.2419C227.448 10.2044 226.927 10.1856 226.21 10.1856C225.887 10.1856 225.469 10.2127 224.957 10.2669C224.902 10.2669 224.835 10.2544 224.756 10.2294C224.76 10.0375 224.77 9.90198 224.785 9.82273L225.24 9.71011L225.719 9.62878C225.767 9.61626 225.828 9.5975 225.903 9.57247C225.946 9.23462 225.97 8.67361 225.974 7.88947L225.979 7.35767C225.956 7.1366 225.944 6.87174 225.944 6.56309C225.798 6.55058 225.641 6.54223 225.471 6.53806L222.728 6.50677L222.675 6.50052L222.634 6.49426C222.606 6.49426 222.574 6.49635 222.539 6.50052C222.437 6.50469 222.35 6.50677 222.279 6.50677L222.113 6.50677C222.038 6.50677 221.954 6.52138 221.859 6.55058L221.835 7.01981L221.835 7.10115C221.843 7.21377 221.847 7.28676 221.847 7.32013L221.847 9.25964C221.847 9.36809 221.853 9.47862 221.865 9.59124L221.924 9.62878L222.793 9.77268C222.836 9.78937 222.87 9.79979 222.894 9.80396C222.945 9.81647 222.988 9.83524 223.024 9.86028C223.035 9.95621 223.042 10.0209 223.042 10.0542C223.042 10.1084 223.033 10.1835 223.018 10.2795C222.876 10.2836 222.756 10.2857 222.657 10.2857C222.571 10.2857 222.49 10.2836 222.415 10.2795C222.379 10.2795 222.346 10.2774 222.314 10.2732L221.481 10.2357C221.284 10.2148 221.008 10.2044 220.653 10.2044L220.529 10.2106C220.364 10.219 220.267 10.2252 220.239 10.2294C219.995 10.2628 219.613 10.2795 219.093 10.2795ZM263.613 2.62148L263.607 2.14599L265.02 2.23983L265.653 2.23357L265.883 2.23357C266.124 2.23357 266.5 2.21898 267.012 2.18978C267.304 2.16892 267.487 2.1585 267.562 2.1585C268.059 2.1585 268.433 2.1877 268.685 2.24609C269.072 2.32951 269.377 2.46298 269.602 2.64651C269.83 2.83003 270.025 3.0928 270.187 3.43483C270.353 3.77268 270.435 4.08759 270.435 4.37956C270.435 5.10532 270.219 5.69552 269.785 6.15015C269.355 6.60062 268.812 6.82586 268.153 6.82586C267.925 6.82586 267.706 6.79666 267.497 6.73827C267.292 6.67988 267.099 6.59229 266.918 6.47549Q266.888 6.29406 266.888 5.97498C266.983 5.98331 267.068 5.98957 267.143 5.99374C267.221 5.99792 267.29 6 267.349 6C267.684 6 267.966 5.90198 268.195 5.70594Q268.222 5.68327 268.247 5.65893Q268.65 5.27338 268.65 4.46716C268.65 4.0584 268.583 3.72472 268.449 3.46611C268.319 3.20334 268.163 3.02607 267.982 2.9343C267.73 2.80917 267.446 2.74661 267.131 2.74661C266.835 2.74661 266.624 2.7925 266.498 2.88425C266.467 2.93848 266.443 2.99062 266.427 3.04066L266.469 5.98749L266.457 6.23775L266.474 6.50052C266.478 6.55891 266.48 6.64442 266.48 6.75704L266.48 7.27007L266.486 8.08968L266.474 9.06569C266.474 9.20334 266.486 9.38895 266.51 9.62252L267.686 9.77894C267.702 9.87904 267.71 9.95829 267.71 10.0167C267.71 10.0792 267.7 10.1668 267.68 10.2795C267.582 10.2961 267.507 10.3045 267.456 10.3045C267.334 10.3045 267.103 10.2899 266.764 10.2607Q266.256 10.2106 265.605 10.2106C265.117 10.2106 264.652 10.244 264.21 10.3107C264.135 10.3233 264.017 10.3337 263.856 10.342C263.84 10.2211 263.832 10.1314 263.832 10.073C263.832 10.0355 263.836 9.97706 263.844 9.89781L264.204 9.77268C264.453 9.69343 264.667 9.5975 264.849 9.48488C264.884 9.36392 264.902 9.25339 264.902 9.15328C264.902 9.11157 264.9 9.06361 264.896 9.00938C264.892 8.88008 264.89 8.69865 264.89 8.46507L264.872 6.70699L264.807 4.72367C264.78 3.78102 264.758 3.27216 264.742 3.19708C264.715 3.07612 264.667 2.98228 264.6 2.91553C264.533 2.84463 264.421 2.79458 264.263 2.76538C263.936 2.70699 263.72 2.65902 263.613 2.62148ZM287.969 2.62148L287.963 2.14599L289.376 2.23983L290.009 2.23357L290.24 2.23357C290.48 2.23357 290.856 2.21898 291.368 2.18978C291.66 2.16892 291.844 2.1585 291.918 2.1585C292.415 2.1585 292.789 2.1877 293.042 2.24609C293.428 2.32951 293.733 2.46298 293.958 2.64651C294.186 2.83003 294.382 3.0928 294.543 3.43483C294.708 3.77268 294.791 4.08759 294.791 4.37956Q294.791 5.19881 294.423 5.78779L294.423 5.7881Q294.302 5.98155 294.141 6.15015C293.711 6.60062 293.168 6.82586 292.51 6.82586C292.281 6.82586 292.062 6.79666 291.853 6.73827C291.648 6.67988 291.455 6.59229 291.274 6.47549C291.254 6.35454 291.244 6.1877 291.244 5.97498C291.339 5.98331 291.424 5.98957 291.499 5.99374Q291.617 6 291.706 6C292.041 6 292.322 5.90198 292.551 5.70594Q292.578 5.68327 292.603 5.65893Q293.006 5.27338 293.006 4.46716C293.006 4.0584 292.939 3.72472 292.805 3.46611C292.675 3.20334 292.519 3.02607 292.338 2.9343Q291.96 2.74661 291.487 2.74661C291.191 2.74661 290.98 2.7925 290.854 2.88425C290.823 2.93848 290.799 2.99062 290.783 3.04066L290.825 5.98749L290.813 6.23775L290.831 6.50052C290.834 6.55891 290.836 6.64442 290.836 6.75704L290.836 7.27007L290.842 8.08968L290.831 9.06569C290.831 9.20334 290.842 9.38895 290.866 9.62252L292.042 9.77894C292.058 9.87904 292.066 9.95829 292.066 10.0167C292.066 10.0792 292.056 10.1668 292.037 10.2795C291.938 10.2961 291.863 10.3045 291.812 10.3045C291.69 10.3045 291.459 10.2899 291.12 10.2607Q290.612 10.2106 289.961 10.2106C289.473 10.2106 289.008 10.244 288.566 10.3107C288.491 10.3233 288.373 10.3337 288.212 10.342C288.196 10.2211 288.188 10.1314 288.188 10.073C288.188 10.0355 288.192 9.97706 288.2 9.89781L288.561 9.77268C288.809 9.69343 289.023 9.5975 289.205 9.48488C289.24 9.36392 289.258 9.25339 289.258 9.15328C289.258 9.11157 289.256 9.06361 289.252 9.00938C289.248 8.88008 289.246 8.69865 289.246 8.46507L289.229 6.70699L289.163 4.72367C289.136 3.78102 289.114 3.27216 289.098 3.19708C289.071 3.07612 289.023 2.98228 288.957 2.91553C288.89 2.84463 288.777 2.79458 288.62 2.76538C288.292 2.70699 288.076 2.65902 287.969 2.62148ZM232.364 5.64964Q233.009 5.59332 233.535 5.59332C234.65 5.59332 235.472 5.81022 236 6.244Q236.47 6.63002 236.661 7.12395Q236.792 7.4626 236.792 7.85193C236.792 8.60688 236.498 9.20959 235.911 9.66006C235.324 10.1064 234.591 10.3295 233.712 10.3295C233.55 10.3295 233.279 10.3149 232.896 10.2857C232.636 10.2649 232.317 10.2544 231.938 10.2544C231.773 10.2544 231.462 10.269 231.004 10.2982L229.621 10.3545L229.633 9.85401C229.712 9.82899 229.826 9.80605 229.976 9.78519Q230.401 9.72263 230.603 9.62252C230.705 9.52659 230.756 9.09072 230.756 8.31491C230.756 6.84254 230.746 5.57039 230.727 4.49844C230.711 3.42232 230.679 2.85714 230.632 2.80292C230.589 2.74452 230.455 2.70907 230.23 2.69656C230.143 2.69239 229.95 2.66945 229.651 2.62774L229.633 2.18353L229.899 2.17727C230.214 2.17727 230.642 2.20021 231.182 2.24609L231.678 2.28363C231.793 2.28363 231.97 2.2732 232.21 2.25235L232.559 2.22106C232.788 2.20855 232.948 2.19604 233.038 2.18353C233.176 2.16267 233.328 2.15224 233.493 2.15224L233.499 2.28363L233.487 2.49635C233.483 2.52138 233.481 2.55891 233.481 2.60897C232.878 2.72993 232.54 2.82378 232.465 2.89051C232.394 2.95724 232.358 3.14494 232.358 3.4536L232.364 3.76643C232.372 3.92075 232.376 4.1293 232.376 4.39207L232.364 5.64964ZM237.289 10.3045L237.289 9.85401C237.367 9.82899 237.497 9.79353 237.679 9.74765C237.935 9.68092 238.126 9.6121 238.252 9.54119C238.323 9.41189 238.359 9.23254 238.359 9.00313L238.353 8.26486L238.365 6.83837L238.359 6.50052C238.386 5.67466 238.4 5.24922 238.4 5.22419L238.388 4.39207L238.406 4.05422L238.376 3.34098L238.37 3.07195Q238.365 3.00938 238.329 2.87174C238.167 2.7925 237.905 2.74244 237.543 2.72159C237.456 2.71741 237.387 2.71116 237.336 2.70281L237.318 2.15224L239.009 2.22732C239.218 2.23566 239.348 2.23983 239.399 2.23983Q239.748 2.23983 240.516 2.18978C240.804 2.16892 240.985 2.15641 241.06 2.15224Q241.066 2.27112 241.066 2.35245C241.066 2.42336 241.062 2.51512 241.054 2.62774C240.897 2.68613 240.715 2.74244 240.51 2.79666Q240.209 2.87174 240.014 2.95308C239.99 3.06152 239.978 3.21793 239.978 3.42232C239.978 3.60167 239.984 3.74765 239.996 3.86027C239.984 4.56517 239.978 5.10741 239.978 5.48697L239.984 7.13869L239.967 7.97706L239.978 9.22836L239.972 9.46611C239.972 9.49948 239.98 9.54745 239.996 9.61001C240.237 9.66423 240.455 9.70177 240.652 9.72263C240.688 9.7268 240.808 9.74348 241.013 9.77268C241.029 9.89781 241.037 10.0021 241.037 10.0855C241.037 10.1314 241.035 10.2023 241.031 10.2982C240.979 10.2982 240.94 10.3003 240.912 10.3045C240.786 10.3128 240.713 10.317 240.694 10.317C240.666 10.317 240.615 10.3107 240.54 10.2982C240.485 10.2899 240.223 10.2607 239.754 10.2106L238.707 10.1981C238.499 10.1981 238.195 10.219 237.797 10.2607C237.537 10.2857 237.367 10.3003 237.289 10.3045ZM287.674 4.31074L287.426 4.32326C287.374 4.32326 287.307 4.31908 287.224 4.31074C287.189 4.23149 287.142 4.10844 287.083 3.9416L286.852 3.49739C286.753 3.30135 286.625 3.10949 286.468 2.92179C286.409 2.89677 286.282 2.88008 286.089 2.87174L284.736 2.79041L283.932 2.80292L283.583 2.80917C283.555 2.87174 283.542 2.95724 283.542 3.0657L283.547 6.01251L283.535 6.41919L283.553 6.78832L283.577 7.24505C283.577 7.36183 283.569 7.55579 283.553 7.8269Q283.542 8.02086 283.542 8.15224L283.565 8.66528L283.559 8.86549C283.571 9.05318 283.577 9.18874 283.577 9.27216Q283.577 9.36678 283.603 9.45347Q283.61 9.47569 283.618 9.49739C283.65 9.51825 283.77 9.55579 283.979 9.61001L284.168 9.66632C284.282 9.69969 284.377 9.72054 284.452 9.72888C284.59 9.74139 284.678 9.76851 284.718 9.81022Q284.777 9.86653 284.777 10.048C284.777 10.2273 284.72 10.317 284.605 10.317C284.562 10.317 284.391 10.3024 284.091 10.2732L283.778 10.2607L283.701 10.2544C283.559 10.2461 283.439 10.2419 283.341 10.2419L282.714 10.2544L281.868 10.2544L281.064 10.292L280.84 10.2982C280.801 10.2982 280.763 10.2878 280.728 10.2669C280.724 10.2002 280.722 10.1502 280.722 10.1168C280.722 10.0542 280.726 9.9708 280.733 9.86653C280.773 9.82065 280.869 9.77894 281.023 9.74139C281.106 9.72054 281.195 9.68926 281.289 9.64755L281.514 9.55996C281.691 9.49739 281.794 9.45152 281.821 9.42232C281.849 9.39312 281.874 9.28259 281.898 9.09072C281.922 8.89468 281.933 8.75495 281.933 8.67153L281.916 7.35141L281.904 6.55058L281.916 5.90615L281.91 5.28676C281.91 4.96142 281.898 4.5172 281.874 3.95412L281.886 3.16579Q281.886 2.94056 281.827 2.88425C281.792 2.84672 281.697 2.82794 281.543 2.82794C281.488 2.82794 281.329 2.80501 281.064 2.75912C280.804 2.70907 280.66 2.6757 280.633 2.65902Q280.592 2.57768 280.592 2.28989C280.592 2.24818 280.595 2.20438 280.603 2.1585L280.769 2.15224C280.844 2.15224 281.017 2.16267 281.289 2.18353L282.998 2.25235L285.327 2.23983L286.113 2.22106C286.641 2.22106 287.124 2.25235 287.561 2.31491C287.632 2.38582 287.668 2.49844 287.668 2.65276L287.674 4.31074ZM303.316 10.2982L303.334 9.87279C303.826 9.80605 304.14 9.69969 304.274 9.5537C304.36 9.4536 304.427 9.19291 304.475 8.77164L304.552 6.54432L304.64 4.27946C304.648 4.14182 304.652 4.0584 304.652 4.0292C304.652 3.44109 304.618 3.10115 304.552 3.00938C304.489 2.91763 304.236 2.82794 303.795 2.74036C303.685 2.71533 303.598 2.69447 303.535 2.67779C303.527 2.57352 303.523 2.48592 303.523 2.41502L303.523 2.22106C303.669 2.20855 303.84 2.20229 304.037 2.20229L305.769 2.26486C305.809 2.26903 305.864 2.2732 305.935 2.27737L306.207 2.28989C306.274 2.37331 306.341 2.48384 306.408 2.62148Q306.626 3.07821 306.987 3.96037L307.052 4.1293L307.974 6.25026C307.994 6.30032 308.026 6.37331 308.069 6.46924Q308.158 6.69447 308.252 6.90094C308.315 7.03441 308.38 7.18248 308.447 7.34515C308.518 7.50782 308.585 7.65172 308.648 7.77685C308.703 7.67675 308.757 7.56622 308.808 7.44526C308.966 7.06152 309.119 6.70907 309.269 6.3879C309.529 5.82065 309.882 4.95308 310.327 3.78519C310.398 3.5975 310.514 3.31596 310.676 2.94057C310.842 2.561 310.932 2.36079 310.948 2.33994C310.983 2.30657 311.054 2.28989 311.161 2.28989C311.2 2.28989 311.261 2.2878 311.344 2.28363C311.549 2.27112 311.795 2.26069 312.083 2.25235C312.497 2.24818 312.828 2.23566 313.076 2.21481Q313.455 2.17727 313.502 2.17727C313.541 2.17727 313.589 2.18144 313.644 2.18978C313.648 2.24818 313.65 2.29406 313.65 2.32742L313.638 2.51512C313.638 2.55266 313.636 2.60897 313.632 2.68404C313.261 2.74244 312.96 2.83003 312.727 2.94682C312.566 3.03024 312.485 3.13451 312.485 3.25964L312.485 3.35349L312.585 5.26799Q312.603 5.53076 312.68 7.87695C312.692 8.22732 312.718 8.67153 312.757 9.20959C312.765 9.27633 312.769 9.32847 312.769 9.366C312.773 9.46611 312.792 9.53076 312.828 9.55996C312.867 9.58916 313.222 9.71011 313.892 9.92284C313.896 9.98957 313.898 10.0396 313.898 10.073C313.898 10.1606 313.896 10.2482 313.892 10.3358C313.786 10.3358 313.518 10.3128 313.088 10.2669C312.658 10.2169 312.256 10.1919 311.882 10.1919Q311.025 10.1919 310.215 10.2669C310.144 10.2753 310.075 10.2815 310.008 10.2857L310.02 9.85401C310.181 9.78728 310.396 9.73097 310.664 9.68509C310.853 9.65172 310.974 9.59541 311.025 9.51616C311.076 9.43691 311.102 9.21585 311.102 8.85297C311.102 8.71533 311.1 8.59437 311.096 8.4901C311.076 8.05214 311.064 7.44317 311.06 6.66319L310.96 4.45464C310.948 4.14182 310.934 3.92492 310.918 3.80396L309.447 7.38269C309.411 7.46611 309.358 7.58707 309.287 7.74557C309.196 7.94995 309.135 8.08968 309.104 8.16476Q308.648 9.32221 308.471 9.93535C308.439 10.0396 308.392 10.1752 308.329 10.342L307.874 10.3358L307.555 9.37852C307.46 9.12826 307.299 8.7487 307.07 8.23984C306.936 7.9437 306.832 7.70386 306.757 7.52033C306.721 7.44526 306.696 7.38895 306.68 7.35141L306.609 7.19499C306.605 7.16997 306.599 7.14912 306.591 7.13243L305.71 5.12408L305.172 3.90407L305.125 6.8634L305.083 8.78415C305.083 9.10115 305.139 9.32847 305.249 9.46611C305.364 9.59958 305.606 9.71429 305.976 9.81022L306.26 9.8853L306.26 10.342C306.031 10.3379 305.785 10.3212 305.521 10.292C305.261 10.2586 304.914 10.2419 304.481 10.2419C304.39 10.2419 304.002 10.2607 303.316 10.2982ZM314.418 10.2982L314.436 9.87279C314.928 9.80605 315.242 9.69969 315.376 9.5537C315.462 9.4536 315.53 9.19291 315.577 8.77164L315.654 6.54432L315.742 4.27946C315.75 4.14182 315.754 4.0584 315.754 4.0292C315.754 3.44109 315.721 3.10115 315.654 3.00938C315.591 2.91763 315.338 2.82794 314.897 2.74036C314.787 2.71533 314.7 2.69447 314.637 2.67779C314.629 2.57352 314.625 2.48592 314.625 2.41502L314.625 2.22106C314.771 2.20855 314.942 2.20229 315.139 2.20229L316.871 2.26486C316.911 2.26903 316.966 2.2732 317.037 2.27737L317.309 2.28989C317.376 2.37331 317.443 2.48384 317.51 2.62148Q317.729 3.07821 318.089 3.96037L318.154 4.1293L319.076 6.25026C319.096 6.30032 319.128 6.37331 319.171 6.46924C319.23 6.61939 319.291 6.7633 319.354 6.90094C319.417 7.03441 319.482 7.18248 319.55 7.34515C319.62 7.50782 319.687 7.65172 319.75 7.77685C319.806 7.67675 319.859 7.56622 319.91 7.44526C320.068 7.06152 320.221 6.70907 320.371 6.3879C320.631 5.82065 320.984 4.95308 321.429 3.78519C321.5 3.5975 321.616 3.31596 321.778 2.94057C321.944 2.561 322.034 2.36079 322.05 2.33994C322.085 2.30657 322.156 2.28989 322.263 2.28989C322.302 2.28989 322.364 2.2878 322.446 2.28363C322.651 2.27112 322.897 2.26069 323.185 2.25235C323.599 2.24818 323.93 2.23566 324.178 2.21481Q324.557 2.17727 324.604 2.17727C324.643 2.17727 324.691 2.18144 324.746 2.18978C324.75 2.24818 324.752 2.29406 324.752 2.32742L324.74 2.51512C324.74 2.55266 324.738 2.60897 324.734 2.68404C324.364 2.74244 324.062 2.83003 323.83 2.94682C323.668 3.03024 323.587 3.13451 323.587 3.25964L323.587 3.35349L323.688 5.26799C323.699 5.44317 323.731 6.31283 323.782 7.87695C323.794 8.22732 323.82 8.67153 323.859 9.20959C323.867 9.27633 323.871 9.32847 323.871 9.366C323.875 9.46611 323.895 9.53076 323.93 9.55996C323.969 9.58916 324.324 9.71011 324.994 9.92284C324.998 9.98957 325 10.0396 325 10.073C325 10.1606 324.998 10.2482 324.994 10.3358C324.888 10.3358 324.62 10.3128 324.19 10.2669C323.76 10.2169 323.359 10.1919 322.984 10.1919C322.413 10.1919 321.857 10.2169 321.317 10.2669C321.246 10.2753 321.177 10.2815 321.11 10.2857L321.122 9.85401C321.283 9.78728 321.498 9.73097 321.766 9.68509C321.956 9.65172 322.076 9.59541 322.127 9.51616C322.178 9.43691 322.204 9.21585 322.204 8.85297C322.204 8.71533 322.202 8.59437 322.198 8.4901C322.178 8.05214 322.166 7.44317 322.162 6.66319L322.062 4.45464C322.05 4.14182 322.036 3.92492 322.021 3.80396L320.549 7.38269Q320.495 7.50782 320.389 7.74557C320.298 7.94995 320.237 8.08968 320.206 8.16476Q319.75 9.32221 319.573 9.93535C319.542 10.0396 319.494 10.1752 319.431 10.342L318.976 10.3358L318.657 9.37852C318.562 9.12826 318.401 8.7487 318.172 8.23984C318.038 7.9437 317.934 7.70386 317.859 7.52033C317.823 7.44526 317.798 7.38895 317.782 7.35141L317.711 7.19499C317.707 7.16997 317.701 7.14912 317.693 7.13243L316.812 5.12408L316.274 3.90407L316.227 6.8634L316.186 8.78415C316.186 9.10115 316.241 9.32847 316.351 9.46611C316.466 9.59958 316.708 9.71429 317.078 9.81022L317.362 9.8853L317.362 10.342C317.134 10.3379 316.887 10.3212 316.623 10.292C316.363 10.2586 316.016 10.2419 315.583 10.2419C315.492 10.2419 315.104 10.2607 314.418 10.2982ZM241.569 2.20229C241.71 2.19812 241.825 2.19604 241.911 2.19604C242.006 2.19604 242.083 2.19812 242.142 2.20229L242.461 2.22732L242.609 2.22106C242.629 2.22106 242.7 2.23149 242.822 2.25235Q243.153 2.30865 243.774 2.30865C244.286 2.30865 244.771 2.27528 245.228 2.20855C245.291 2.21272 245.36 2.21898 245.435 2.22732C245.427 2.36496 245.423 2.50261 245.423 2.64025C245.364 2.66945 245.323 2.68822 245.299 2.69656L244.714 2.80292C244.666 2.81543 244.601 2.83837 244.519 2.87174C244.522 2.94682 244.53 3.00105 244.542 3.03441C244.83 3.55579 245.1 3.98957 245.352 4.33577L245.926 5.20542L245.99 5.30553L246.327 4.86757L247.061 3.73514C247.238 3.45568 247.35 3.24713 247.397 3.10949C247.413 3.06778 247.421 3.02815 247.421 2.99062L247.403 2.89051C247.324 2.84463 247.261 2.81543 247.214 2.80292C247.187 2.79875 247.112 2.79458 246.99 2.79041C246.785 2.78623 246.601 2.76955 246.44 2.74036C246.428 2.65694 246.422 2.59437 246.422 2.55266C246.422 2.53181 246.426 2.48175 246.434 2.4025C246.434 2.37331 246.436 2.32534 246.44 2.25861C246.483 2.25443 246.522 2.244 246.558 2.22732C246.913 2.25235 247.646 2.26486 248.757 2.26486C248.899 2.26486 249.025 2.25861 249.135 2.24609C249.246 2.23357 249.313 2.22732 249.336 2.22732C249.376 2.22732 249.435 2.23357 249.514 2.24609C249.534 2.32951 249.543 2.40459 249.543 2.47132C249.543 2.51303 249.542 2.57977 249.538 2.67153L248.627 2.878C248.552 2.9072 248.469 2.96559 248.379 3.05318C248.288 3.1366 248.044 3.44942 247.646 3.99166L246.789 5.16788C246.69 5.3097 246.607 5.4244 246.54 5.51199C246.477 5.59541 246.42 5.67049 246.369 5.73723L246.458 5.86861C246.674 6.19812 246.895 6.52972 247.12 6.8634L248.296 8.70282C248.607 9.19083 248.838 9.49113 248.988 9.60375C249.094 9.68301 249.364 9.76643 249.798 9.85401C249.81 9.93744 249.815 9.99165 249.815 10.0167C249.815 10.0375 249.805 10.1147 249.786 10.2482L249.803 10.3045L249.384 10.317C249.293 10.317 249.116 10.3066 248.852 10.2857L248.125 10.2357L248.048 10.2231Q247.924 10.2169 247.876 10.2169C247.628 10.2169 247.334 10.2315 246.996 10.2607C246.656 10.2899 246.408 10.3045 246.251 10.3045C246.148 10.3045 245.981 10.3003 245.748 10.292L245.748 10.1293Q245.748 10.0167 245.76 9.89781C246.063 9.81439 246.381 9.74557 246.712 9.69135C246.755 9.66215 246.804 9.63295 246.86 9.60375L246.865 9.53493C246.865 9.49739 246.86 9.45985 246.848 9.42232C246.824 9.34306 246.769 9.22836 246.682 9.07821C246.509 8.78624 246.274 8.43378 245.979 8.02086L245.275 7.02607C245.185 7.13869 244.867 7.60167 244.323 8.41502C244.15 8.62357 244.004 8.8488 243.886 9.09072C243.807 9.24505 243.768 9.34306 243.768 9.38477L243.774 9.43483L243.851 9.54745C243.996 9.61835 244.177 9.69135 244.394 9.76643C244.611 9.83733 244.751 9.8853 244.814 9.91032L244.85 10.1981L244.85 10.2294L244.838 10.2982C244.723 10.3149 244.647 10.3233 244.607 10.3233C244.544 10.3233 244.355 10.3066 244.04 10.2732C243.933 10.2607 243.742 10.2523 243.466 10.2482L243.188 10.2419L241.882 10.3045C241.854 10.3045 241.762 10.3024 241.604 10.2982L241.58 10.0167C241.58 9.97914 241.586 9.92492 241.598 9.85401C241.665 9.84567 241.75 9.83524 241.852 9.82273C242.16 9.79353 242.396 9.73514 242.562 9.64755C242.629 9.61001 242.753 9.4828 242.934 9.2659C243.214 8.94057 243.466 8.62148 243.691 8.30865C243.821 8.12513 243.923 7.98749 243.998 7.89572C244.207 7.59124 244.521 7.15537 244.938 6.58811L244.589 6.03128C244.337 5.70177 244.142 5.42857 244.004 5.21168L243.656 4.67361C243.521 4.44004 243.433 4.29406 243.389 4.23566C243.2 3.97706 242.976 3.63087 242.716 3.19708C242.617 3.03858 242.491 2.92179 242.337 2.84672C242.183 2.77164 241.933 2.72367 241.586 2.70281L241.586 2.60897C241.586 2.56309 241.584 2.52972 241.58 2.50887C241.565 2.42961 241.557 2.37748 241.557 2.35245L241.569 2.20229ZM76.769 2.20229C76.9937 2.21481 77.1887 2.23357 77.3542 2.25861Q77.8213 2.32742 78.436 2.32742C78.5779 2.32742 78.9424 2.31491 79.5298 2.28989C80.4087 2.25235 81.2026 2.23357 81.9121 2.23357L82.9822 2.22106C83.2224 2.22106 83.5771 2.25235 84.0461 2.31491Q84.0476 2.31662 84.0491 2.31834L84.0503 2.31972Q84.1526 2.4441 84.1526 2.65276L84.1526 3.9416L84.1646 4.19812C84.1646 4.22315 84.1626 4.26069 84.1584 4.31074L83.9163 4.32326C83.8845 4.32326 83.8176 4.31908 83.7151 4.31074C83.6797 4.22732 83.6323 4.10428 83.5732 3.9416L83.3369 3.49739C83.2461 3.3097 83.1201 3.11783 82.9585 2.92179C82.8599 2.89259 82.7339 2.87592 82.5801 2.87174C82.5408 2.86757 82.4204 2.85714 82.2195 2.84046C81.853 2.80709 81.459 2.79041 81.0371 2.79041Q80.3159 2.79041 79.7485 2.81543C79.7366 2.91971 79.7307 3.33055 79.7307 4.04797L79.7424 5.09906L79.7424 5.88738C79.8411 5.89989 79.9258 5.90615 79.9968 5.90615C80.7021 5.90615 81.2046 5.89156 81.5042 5.86236C81.8037 5.83316 81.989 5.79353 82.0598 5.74348C82.1309 5.68926 82.1938 5.5975 82.249 5.46819C82.2844 5.37643 82.3535 5.06986 82.4561 4.54848L82.5327 4.54223L82.8757 4.54848C82.8914 4.91971 82.8994 5.20125 82.8994 5.39312C82.8994 5.83108 82.8955 6.11262 82.8875 6.23775C82.8835 6.36288 82.8816 6.4609 82.8816 6.53181Q82.8816 6.70073 82.8994 7.07612C82.9111 7.32221 82.917 7.50574 82.917 7.62669L82.917 7.76434L82.4973 7.76434C82.4817 7.6976 82.4521 7.55996 82.4087 7.35141Q82.2905 6.76955 82.1958 6.62566C82.1487 6.55058 82.0698 6.49426 81.9595 6.45673C81.8806 6.42753 81.5889 6.41293 81.0845 6.41293C80.4893 6.41293 80.042 6.42961 79.7424 6.46298C79.7385 6.57143 79.7366 6.64233 79.7366 6.6757C79.7366 7.17206 79.7444 7.58498 79.7603 7.9145L79.7485 9.2659C79.7485 9.4244 79.8018 9.53284 79.908 9.59124C80.0696 9.67883 80.5642 9.72263 81.3918 9.72263C81.9397 9.72263 82.4048 9.67883 82.7871 9.59124C83.051 9.52867 83.2837 9.38895 83.4846 9.17206C83.7527 8.89259 83.9753 8.50052 84.1526 7.99583C84.2749 7.98331 84.3752 7.97706 84.4541 7.97706C84.4976 7.97706 84.5625 7.97914 84.6492 7.98331C84.6375 8.08759 84.6274 8.17519 84.6196 8.24609L84.5842 8.43378L84.3655 9.61626L84.259 10.3295C84.0029 10.342 83.7998 10.3483 83.6501 10.3483C83.4294 10.3483 82.8403 10.3274 81.8826 10.2857C81.2087 10.2565 80.3967 10.2419 79.447 10.2419C78.9741 10.2419 78.3926 10.2628 77.7029 10.3045L77.4548 10.3045L76.7395 10.3295L76.7395 9.89781C76.8142 9.87695 76.9641 9.85401 77.1887 9.82899Q77.8035 9.75391 78.04 9.62878C78.0833 9.50782 78.105 9.35558 78.105 9.17206C78.105 9.10115 78.103 8.98019 78.0991 8.80917L78.105 8.61523L78.0872 6.25652L78.0933 5.54953L78.0637 4.54848L78.0696 3.8415L78.0164 3.0657C78.0164 3.04484 78.0125 3.00313 78.0044 2.94057C77.9651 2.89468 77.906 2.86549 77.8271 2.85297C77.7837 2.84463 77.7246 2.83212 77.6499 2.81543C77.425 2.76538 77.2085 2.73618 76.9995 2.72784C76.9246 2.72367 76.8379 2.71533 76.7395 2.70281L76.769 2.20229ZM50.5447 2.65902C50.2019 2.65902 49.8984 2.74452 49.6343 2.91553C49.3704 3.08237 49.1714 3.26799 49.0374 3.47237C48.8127 3.81856 48.6531 4.19812 48.5583 4.61105C48.4639 5.01981 48.4165 5.51825 48.4165 6.10636C48.4165 6.46507 48.4304 6.72159 48.458 6.87592C48.4658 6.92596 48.4778 7.01147 48.4934 7.13243C48.5288 7.44109 48.5703 7.66632 48.6177 7.80814C48.7871 8.33785 48.9072 8.66528 48.9783 8.79041C49.0964 9.00313 49.2717 9.21376 49.5044 9.42232C49.6226 9.53076 49.7939 9.63087 50.0186 9.72263C50.2434 9.81022 50.468 9.85401 50.6926 9.85401C51.1182 9.85401 51.5122 9.74974 51.875 9.54119C52.2415 9.32847 52.5352 8.96976 52.7559 8.46507C52.9766 7.96037 53.0869 7.30344 53.0869 6.49426C53.0869 6.16058 53.0652 5.70803 53.0217 5.1366L52.9922 5.01773C52.9805 4.98436 52.9607 4.89885 52.9331 4.76121C52.7874 4.07716 52.5076 3.55579 52.0938 3.19708C51.6838 2.83837 51.1675 2.65902 50.5447 2.65902ZM115.916 2.65902C115.573 2.65902 115.27 2.74452 115.006 2.91553C114.742 3.08237 114.542 3.26799 114.408 3.47237C114.184 3.81856 114.024 4.19812 113.93 4.61105Q113.788 5.22419 113.788 6.10636C113.788 6.46507 113.802 6.72159 113.829 6.87592C113.837 6.92596 113.849 7.01147 113.865 7.13243C113.9 7.44109 113.942 7.66632 113.989 7.80814C114.158 8.33785 114.279 8.66528 114.349 8.79041C114.468 9.00313 114.643 9.21376 114.875 9.42232C114.994 9.53076 115.165 9.63087 115.39 9.72263C115.615 9.81022 115.839 9.85401 116.064 9.85401C116.49 9.85401 116.884 9.74974 117.246 9.54119C117.613 9.32847 117.906 8.96976 118.127 8.46507C118.348 7.96037 118.458 7.30344 118.458 6.49426C118.458 6.16058 118.436 5.70803 118.393 5.1366L118.364 5.01773C118.352 4.98436 118.332 4.89885 118.304 4.76121C118.158 4.07716 117.879 3.55579 117.465 3.19708C117.055 2.83837 116.539 2.65902 115.916 2.65902ZM203.208 2.65902C202.865 2.65902 202.562 2.74452 202.297 2.91553C202.033 3.08237 201.834 3.26799 201.7 3.47237C201.476 3.81856 201.316 4.19812 201.221 4.61105C201.127 5.01981 201.08 5.51825 201.08 6.10636C201.08 6.46507 201.093 6.72159 201.121 6.87592C201.129 6.92596 201.141 7.01147 201.156 7.13243C201.192 7.44109 201.233 7.66632 201.281 7.80814C201.45 8.33785 201.57 8.66528 201.641 8.79041C201.76 9.00313 201.935 9.21376 202.167 9.42232C202.286 9.53076 202.457 9.63087 202.682 9.72263C202.906 9.81022 203.131 9.85401 203.355 9.85401C203.781 9.85401 204.175 9.74974 204.538 9.54119C204.904 9.32847 205.198 8.96976 205.419 8.46507C205.639 7.96037 205.75 7.30344 205.75 6.49426C205.75 6.16058 205.728 5.70803 205.685 5.1366L205.655 5.01773C205.643 4.98436 205.624 4.89885 205.596 4.76121C205.45 4.07716 205.17 3.55579 204.757 3.19708C204.347 2.83837 203.831 2.65902 203.208 2.65902ZM275.33 2.65902Q274.938 2.65902 274.615 2.80791Q274.514 2.85445 274.42 2.91553C274.156 3.08237 273.957 3.26799 273.823 3.47237C273.598 3.81856 273.438 4.19812 273.344 4.61105C273.249 5.01981 273.202 5.51825 273.202 6.10636C273.202 6.46507 273.216 6.72159 273.243 6.87592C273.251 6.92596 273.263 7.01147 273.279 7.13243C273.314 7.44109 273.356 7.66632 273.403 7.80814C273.573 8.33785 273.693 8.66528 273.763 8.79041Q273.941 9.10949 274.29 9.42232C274.408 9.53076 274.579 9.63087 274.804 9.72263Q275.141 9.85401 275.478 9.85401C275.904 9.85401 276.298 9.74974 276.66 9.54119C277.027 9.32847 277.32 8.96976 277.541 8.46507Q277.872 7.70803 277.872 6.49426C277.872 6.16058 277.851 5.70803 277.807 5.1366L277.778 5.01773C277.766 4.98436 277.746 4.89885 277.719 4.76121C277.573 4.07716 277.293 3.55579 276.879 3.19708C276.469 2.83837 275.953 2.65902 275.33 2.65902ZM10.2803 6.78832Q11.6638 6.80709 11.9121 6.80709L12.0598 6.80083C11.9417 6.42961 11.7878 5.99792 11.5986 5.50574C11.4094 5.00938 11.2559 4.63191 11.1377 4.37331L10.2803 6.78832ZM297.753 6.78832C298.675 6.80083 299.219 6.80709 299.385 6.80709L299.532 6.80083C299.414 6.42961 299.26 5.99792 299.072 5.50574C298.882 5.00938 298.729 4.63191 298.61 4.37331L297.753 6.78832ZM232.447 9.59124C232.699 9.70386 232.938 9.76016 233.162 9.76016C234.439 9.76016 235.078 9.17622 235.078 8.00835C235.078 6.77372 234.433 6.15641 233.145 6.15641C232.798 6.15641 232.542 6.17727 232.376 6.21898C232.368 6.37748 232.364 6.50261 232.364 6.59437L232.376 6.98853L232.37 7.9145L232.388 9.20334L232.388 9.30344C232.388 9.39103 232.407 9.48697 232.447 9.59124ZM124.423 7.12617L126.285 7.12617L127.231 7.11366C127.361 7.11366 127.481 7.122 127.592 7.13869C127.604 7.33472 127.615 7.48071 127.627 7.57664L127.633 7.68301L127.609 8.00835C127.605 8.0584 127.604 8.12096 127.604 8.19604L127.604 8.30865L124.399 8.31491C124.395 8.19395 124.393 8.10219 124.393 8.03963C124.393 7.93535 124.397 7.81856 124.405 7.68926C124.409 7.62252 124.411 7.57455 124.411 7.54536L124.405 7.23254L124.423 7.12617Z" fill="#FFFFFF" fill-opacity="1.000000" fill-rule="evenodd"/>
</svg>
