<svg width="32.000000" height="32.000000" viewBox="0 0 32 32" fill="none" xmlns="http://www.w3.org/2000/svg" xmlns:xlink="http://www.w3.org/1999/xlink">
	<desc>
			Created with Pixso.
	</desc>
	<defs>
		<clipPath id="clip6_231">
			<rect id="age" width="32.000000" height="32.000000" fill="white" fill-opacity="0"/>
		</clipPath>
	</defs>
	<rect id="age" width="32.000000" height="32.000000" fill="#FFFFFF" fill-opacity="0"/>
	<g clip-path="url(#clip6_231)">
		<path id="Vector" d="M20.79 4.03625C19.574 2.72314 17.875 2 16 2C14.1152 2 12.4106 2.71875 11.2002 4.0238C9.97632 5.34314 9.38013 7.13623 9.52002 9.07251C9.79761 12.8925 12.7046 16 16 16C19.2957 16 22.1975 12.8931 22.4795 9.07373C22.6213 7.15503 22.0215 5.3656 20.79 4.03625ZM27 30L5 30C4.71216 30.0038 4.427 29.9432 4.16528 29.8229C3.90381 29.7026 3.67212 29.5254 3.48755 29.3043C3.0813 28.8187 2.91772 28.1556 3.03882 27.485C3.56641 24.5587 5.21265 22.1006 7.80005 20.375C10.0989 18.8431 13.0107 18 16 18C18.9895 18 21.9014 18.8438 24.2002 20.375C26.7876 22.1 28.4338 24.5581 28.9614 27.4844C29.0825 28.155 28.9189 28.8181 28.5127 29.3037C28.3281 29.5249 28.0967 29.7021 27.835 29.8226C27.5732 29.9431 27.2881 30.0037 27 30Z" fill="#191919" fill-opacity="0.300000" fill-rule="nonzero"/>
	</g>
</svg>
