<svg width="25.333252" height="27.430298" viewBox="0 0 25.3333 27.4303" fill="none" xmlns="http://www.w3.org/2000/svg" xmlns:xlink="http://www.w3.org/1999/xlink">
	<desc>
			Created with Pixso.
	</desc>
	<defs/>
	<path id="Vector" d="M5.33325 22.0969C8.27466 22.0969 10.6667 19.705 10.6667 16.7637L10.6667 3.23694L22.6667 7.59961L22.6667 17.5063C21.8599 17.0256 20.9392 16.7692 20 16.7637C17.0586 16.7637 14.6667 19.1556 14.6667 22.0969C14.6667 25.0383 17.0586 27.4303 20 27.4303C22.9414 27.4303 25.3333 25.0383 25.3333 22.0969L25.3333 6.66626C25.3335 6.3927 25.2495 6.12573 25.0925 5.90173C24.9353 5.67773 24.7131 5.50745 24.4561 5.41431L9.78931 0.0809326C9.58789 0.00732422 9.37183 -0.0166016 9.15918 0.0112305C8.94678 0.0390625 8.7439 0.117676 8.56836 0.240601C8.39282 0.363525 8.24927 0.526978 8.15039 0.717163C8.05151 0.907349 7.99976 1.11865 8 1.33301L8 12.173C7.19312 11.6923 6.27246 11.4358 5.33325 11.4303C2.39209 11.4303 0 13.8223 0 16.7637C0 19.705 2.39209 22.0969 5.33325 22.0969Z" fill="#191919" fill-opacity="0.300000" fill-rule="nonzero"/>
</svg>
