<svg width="32.000000" height="32.000000" viewBox="0 0 32 32" fill="none" xmlns="http://www.w3.org/2000/svg" xmlns:xlink="http://www.w3.org/1999/xlink">
	<desc>
			Created with Pixso.
	</desc>
	<defs>
		<clipPath id="clip6_227">
			<rect id="time" width="32.000000" height="32.000000" fill="white" fill-opacity="0"/>
		</clipPath>
	</defs>
	<rect id="time" width="32.000000" height="32.000000" fill="#FFFFFF" fill-opacity="0"/>
	<g clip-path="url(#clip6_227)">
		<path id="Vector" d="M16 2.66675C23.364 2.66675 29.3335 8.63611 29.3335 16.0001C29.3335 23.3641 23.364 29.3334 16 29.3334C8.63599 29.3334 2.66675 23.3641 2.66675 16.0001C2.66675 8.63611 8.63599 2.66675 16 2.66675ZM16 8.00012C15.6465 8.00012 15.3074 8.1405 15.0574 8.39062C14.8071 8.64062 14.6667 8.97974 14.6667 9.33337L14.6667 16.0001C14.6667 16.3536 14.8074 16.6927 15.0574 16.9427L19.0574 20.9427C19.3088 21.1857 19.6458 21.3201 19.9954 21.317C20.345 21.314 20.6792 21.1737 20.9265 20.9265C21.1738 20.6793 21.314 20.3448 21.3169 19.9952C21.3201 19.6456 21.1855 19.3088 20.9426 19.0574L17.3335 15.4481L17.3335 9.33337C17.3335 8.97974 17.1929 8.64062 16.9429 8.39062C16.6929 8.1405 16.3538 8.00012 16 8.00012Z" fill="#191919" fill-opacity="0.300000" fill-rule="nonzero"/>
	</g>
</svg>
