<svg width="35.000000" height="35.000000" viewBox="0 0 35 35" fill="none" xmlns="http://www.w3.org/2000/svg" xmlns:xlink="http://www.w3.org/1999/xlink">
	<desc>
			Created with Pixso.
	</desc>
	<defs/>
	<path id="Vector" d="M0 33.125C0 33.6223 0.19751 34.0992 0.549194 34.4508C0.900757 34.8024 1.37769 35 1.875 35L33.125 35C33.6223 35 34.0992 34.8024 34.4508 34.4508C34.8025 34.0992 35 33.6223 35 33.125L35 11.25L0 11.25L0 33.125ZM25 14.0625C25 13.9796 25.033 13.9001 25.0916 13.8416C25.1501 13.7829 25.2296 13.75 25.3125 13.75L28.4375 13.75C28.5204 13.75 28.5999 13.7829 28.6584 13.8416C28.717 13.9001 28.75 13.9796 28.75 14.0625L28.75 17.1875C28.75 17.2704 28.717 17.3499 28.6584 17.4084C28.5999 17.4671 28.5204 17.5 28.4375 17.5L25.3125 17.5C25.2296 17.5 25.1501 17.4671 25.0916 17.4084C25.033 17.3499 25 17.2704 25 17.1875L25 14.0625ZM25 20.3125C25 20.2296 25.033 20.1501 25.0916 20.0916C25.1501 20.0329 25.2296 20 25.3125 20L28.4375 20C28.5204 20 28.5999 20.0329 28.6584 20.0916C28.717 20.1501 28.75 20.2296 28.75 20.3125L28.75 23.4375C28.75 23.5204 28.717 23.5999 28.6584 23.6584C28.5999 23.7171 28.5204 23.75 28.4375 23.75L25.3125 23.75C25.2296 23.75 25.1501 23.7171 25.0916 23.6584C25.033 23.5999 25 23.5204 25 23.4375L25 20.3125ZM18.75 14.0625C18.75 13.9796 18.783 13.9001 18.8416 13.8416C18.9001 13.7829 18.9796 13.75 19.0625 13.75L22.1875 13.75C22.2704 13.75 22.3499 13.7829 22.4084 13.8416C22.467 13.9001 22.5 13.9796 22.5 14.0625L22.5 17.1875C22.5 17.2704 22.467 17.3499 22.4084 17.4084C22.3499 17.4671 22.2704 17.5 22.1875 17.5L19.0625 17.5C18.9796 17.5 18.9001 17.4671 18.8416 17.4084C18.783 17.3499 18.75 17.2704 18.75 17.1875L18.75 14.0625ZM18.75 20.3125C18.75 20.2296 18.783 20.1501 18.8416 20.0916C18.9001 20.0329 18.9796 20 19.0625 20L22.1875 20C22.2704 20 22.3499 20.0329 22.4084 20.0916C22.467 20.1501 22.5 20.2296 22.5 20.3125L22.5 23.4375C22.5 23.5204 22.467 23.5999 22.4084 23.6584C22.3499 23.7171 22.2704 23.75 22.1875 23.75L19.0625 23.75C18.9796 23.75 18.9001 23.7171 18.8416 23.6584C18.783 23.5999 18.75 23.5204 18.75 23.4375L18.75 20.3125ZM18.75 26.5625C18.75 26.4796 18.783 26.4001 18.8416 26.3416C18.9001 26.2829 18.9796 26.25 19.0625 26.25L22.1875 26.25C22.2704 26.25 22.3499 26.2829 22.4084 26.3416C22.467 26.4001 22.5 26.4796 22.5 26.5625L22.5 29.6875C22.5 29.7704 22.467 29.8499 22.4084 29.9084C22.3499 29.9671 22.2704 30 22.1875 30L19.0625 30C18.9796 30 18.9001 29.9671 18.8416 29.9084C18.783 29.8499 18.75 29.7704 18.75 29.6875L18.75 26.5625ZM12.5 20.3125C12.5 20.2296 12.533 20.1501 12.5916 20.0916C12.6501 20.0329 12.7296 20 12.8125 20L15.9375 20C16.0204 20 16.0999 20.0329 16.1584 20.0916C16.217 20.1501 16.25 20.2296 16.25 20.3125L16.25 23.4375C16.25 23.5204 16.217 23.5999 16.1584 23.6584C16.0999 23.7171 16.0204 23.75 15.9375 23.75L12.8125 23.75C12.7296 23.75 12.6501 23.7171 12.5916 23.6584C12.533 23.5999 12.5 23.5204 12.5 23.4375L12.5 20.3125ZM12.5 26.5625C12.5 26.4796 12.533 26.4001 12.5916 26.3416C12.6501 26.2829 12.7296 26.25 12.8125 26.25L15.9375 26.25C16.0204 26.25 16.0999 26.2829 16.1584 26.3416C16.217 26.4001 16.25 26.4796 16.25 26.5625L16.25 29.6875C16.25 29.7704 16.217 29.8499 16.1584 29.9084C16.0999 29.9671 16.0204 30 15.9375 30L12.8125 30C12.7296 30 12.6501 29.9671 12.5916 29.9084C12.533 29.8499 12.5 29.7704 12.5 29.6875L12.5 26.5625ZM6.25 20.3125C6.25 20.2296 6.28296 20.1501 6.34155 20.0916C6.40015 20.0329 6.47961 20 6.5625 20L9.6875 20C9.77039 20 9.84985 20.0329 9.90845 20.0916C9.96704 20.1501 10 20.2296 10 20.3125L10 23.4375C10 23.5204 9.96704 23.5999 9.90845 23.6584C9.84985 23.7171 9.77039 23.75 9.6875 23.75L6.5625 23.75C6.47961 23.75 6.40015 23.7171 6.34155 23.6584C6.28296 23.5999 6.25 23.5204 6.25 23.4375L6.25 20.3125ZM6.25 26.5625C6.25 26.4796 6.28296 26.4001 6.34155 26.3416C6.40015 26.2829 6.47961 26.25 6.5625 26.25L9.6875 26.25C9.77039 26.25 9.84985 26.2829 9.90845 26.3416C9.96704 26.4001 10 26.4796 10 26.5625L10 29.6875C10 29.7704 9.96704 29.8499 9.90845 29.9084C9.84985 29.9671 9.77039 30 9.6875 30L6.5625 30C6.47961 30 6.40015 29.9671 6.34155 29.9084C6.28296 29.8499 6.25 29.7704 6.25 29.6875L6.25 26.5625ZM33.125 2.5L28.7562 2.5L28.7562 0L25.0062 0L25.0062 2.5L9.99377 2.5L9.99377 0L6.24377 0L6.24377 2.5L1.875 2.5C1.62976 2.49792 1.38647 2.54443 1.15918 2.63678C0.932007 2.72919 0.72522 2.8656 0.550903 3.03821C0.376709 3.21082 0.238281 3.41626 0.143677 3.64258C0.0491943 3.8689 0.000244141 4.11176 0 4.35706L0 8.75L35 8.75L35 4.35706C34.9998 4.11176 34.9508 3.8689 34.8563 3.64258C34.7617 3.41626 34.6233 3.21082 34.4491 3.03821C34.2748 2.8656 34.0681 2.72919 33.8408 2.63678C33.6135 2.54443 33.3702 2.49792 33.125 2.5Z" fill="#05B093" fill-opacity="1.000000" fill-rule="nonzero"/>
</svg>
